<svg width="20" height="20" viewBox="0 0 20 20" fill="none" xmlns="http://www.w3.org/2000/svg">
<path d="M11.3333 1.33325C9.62868 1.33325 8.1147 2.13546 7.13803 3.38013C6.9827 3.35813 6.82801 3.33325 6.66668 3.33325C4.98001 3.33325 3.60091 4.59006 3.37891 6.21606C1.66758 6.79873 0.474748 8.50428 0.691415 10.457C0.918748 12.5036 2.75057 13.9999 4.8099 13.9999H9.33334V9.33325C9.33334 8.96525 9.63201 8.66659 10 8.66659C10.368 8.66659 10.6667 8.96525 10.6667 9.33325V13.9999H15.1914C17.2467 13.9999 19.0753 12.5094 19.3073 10.4674C19.5286 8.5187 18.3465 6.81521 16.6445 6.22388C16.4192 3.48588 14.1293 1.33325 11.3333 1.33325ZM10.6667 13.9999H9.33334V17.7239L7.8047 16.1952C7.74257 16.1314 7.66827 16.0806 7.5862 16.0459C7.50412 16.0113 7.41593 15.9934 7.32683 15.9934C7.19421 15.9934 7.06461 16.033 6.9546 16.1071C6.8446 16.1812 6.75918 16.2864 6.70928 16.4093C6.65937 16.5321 6.64725 16.6671 6.67445 16.7969C6.70165 16.9267 6.76695 17.0454 6.86199 17.1379L9.52865 19.8046C9.65368 19.9296 9.82323 19.9998 10 19.9998C10.1768 19.9998 10.3463 19.9296 10.4714 19.8046L13.138 17.1379C13.202 17.0765 13.2531 17.0029 13.2883 16.9215C13.3235 16.8401 13.3421 16.7525 13.343 16.6638C13.3439 16.5751 13.3271 16.4871 13.2935 16.405C13.26 16.3229 13.2104 16.2483 13.1477 16.1855C13.085 16.1228 13.0104 16.0732 12.9283 16.0397C12.8462 16.0062 12.7582 15.9894 12.6695 15.9903C12.5808 15.9912 12.4932 16.0098 12.4117 16.045C12.3303 16.0802 12.2568 16.1312 12.1953 16.1952L10.6667 17.7239V13.9999Z" fill="#238DCD"/>
</svg>
