<svg width="23" height="23" viewBox="0 0 23 23" fill="none" xmlns="http://www.w3.org/2000/svg">
<path d="M19.9203 10.2288C19.9241 10.1414 19.9333 10.0555 19.9333 9.96659C19.9333 6.57945 17.1871 3.83325 13.8 3.83325C11.4157 3.83325 9.35333 5.19715 8.33903 7.18435C7.8936 7.00419 7.40983 6.89992 6.9 6.89992C4.96033 6.89992 3.3741 8.34509 3.1188 10.215C1.30563 10.8322 0 12.5449 0 14.5666C0 17.1073 2.05927 19.1666 4.6 19.1666H18.4C20.9407 19.1666 23 17.1073 23 14.5666C23 12.5595 21.7128 10.8575 19.9203 10.2288ZM8.65797 11.7246L10.958 9.42455C11.1075 9.27505 11.3037 9.19992 11.5 9.19992C11.6963 9.19992 11.8925 9.27505 12.042 9.42455L14.342 11.7246C14.6418 12.0243 14.6418 12.5089 14.342 12.8086C14.0423 13.1084 13.5577 13.1084 13.258 12.8086L12.2667 11.8173V16.0999C12.2667 16.5231 11.924 16.8666 11.5 16.8666C11.076 16.8666 10.7333 16.5231 10.7333 16.0999V11.8173L9.74203 12.8086C9.44227 13.1084 8.95773 13.1084 8.65797 12.8086C8.3582 12.5089 8.3582 12.0243 8.65797 11.7246Z" fill="#F9FCFE"/>
</svg>
