<?xml version="1.0" encoding="utf-8"?>
<!-- Generator: Adobe Illustrator 28.2.0, SVG Export Plug-In . SVG Version: 6.00 Build 0)  -->
<svg version="1.1" id="Calque_1" xmlns="http://www.w3.org/2000/svg" xmlns:xlink="http://www.w3.org/1999/xlink" x="0px" y="0px"
	 viewBox="0 0 420.2 313.1" style="enable-background:new 0 0 420.2 313.1;" xml:space="preserve">
<style type="text/css">
	.st0{fill:#238DCD;}
</style>
<path class="st0" d="M0,75.7V51.9h74.1v23.9H0V75.7z M56.5,158c-12.6,0-22.4-3.2-29.4-9.6c-7-6.4-10.5-16-10.5-28.7V25.8h31v93.4
	c0,4.5,1.2,8,3.6,10.4c2.4,2.4,5.6,3.7,9.7,3.7c4.9,0,9.1-1.3,12.5-4l8.3,21.9c-3.2,2.3-7,3.9-11.4,5.1S61.2,158,56.5,158z"/>
<path class="st0" d="M132.2,158c-8.3,0-15.5-1.4-21.5-4.3c-6-2.9-10.5-6.7-13.7-11.6s-4.8-10.4-4.8-16.5c0-6.4,1.6-11.9,4.7-16.7
	c3.1-4.8,8.1-8.5,14.8-11.2c6.8-2.7,15.6-4.1,26.4-4.1h28.4v18.1h-25.1c-7.3,0-12.3,1.2-15,3.6s-4.1,5.4-4.1,8.9
	c0,4,1.6,7.1,4.7,9.4c3.1,2.3,7.4,3.5,12.8,3.5c5.2,0,9.8-1.2,13.9-3.7c4.1-2.4,7.1-6.1,8.9-10.8l4.8,14.3
	c-2.3,6.9-6.4,12.1-12.3,15.7C149.3,156.2,141.6,158,132.2,158z M164.8,156.4v-20.9l-2-4.6V93.6c0-6.6-2-11.8-6.1-15.5
	c-4-3.7-10.2-5.6-18.6-5.6c-5.7,0-11.3,0.9-16.8,2.7c-5.5,1.8-10.2,4.2-14,7.3L96.2,60.8c5.8-4.1,12.8-7.3,21.1-9.5s16.6-3.4,25-3.4
	c16.3,0,29,3.8,38,11.5s13.5,19.7,13.5,36v61H164.8L164.8,156.4z"/>
<path class="st0" d="M209.1,75.7V51.9h74.1v23.9h-74.1V75.7z M265.6,158c-12.6,0-22.4-3.2-29.4-9.6c-7-6.4-10.5-16-10.5-28.7V25.8
	h31v93.4c0,4.5,1.2,8,3.6,10.4s5.6,3.7,9.7,3.7c4.9,0,9.1-1.3,12.5-4l8.4,21.9c-3.2,2.3-7,3.9-11.4,5.1
	C274.9,157.5,270.3,158,265.6,158z"/>
<path class="st0" d="M323.8,34.6c-5.7,0-10.3-1.7-13.9-5s-5.4-7.4-5.4-12.3s1.8-9,5.4-12.3s8.2-5,13.9-5c5.7,0,10.3,1.5,13.9,4.7
	c3.6,3.1,5.4,7.1,5.4,12c0,5.2-1.8,9.4-5.3,12.8S329.6,34.6,323.8,34.6z M308.3,156.4V49.5h31v106.9H308.3L308.3,156.4z"/>
<path class="st0" d="M0,230.8V207h74.1v23.9L0,230.8L0,230.8z M56.5,313.1c-12.6,0-22.4-3.2-29.4-9.6s-10.5-16-10.5-28.7V181h31
	v93.4c0,4.5,1.2,8,3.6,10.4s5.6,3.7,9.7,3.7c4.9,0,9.1-1.3,12.5-4l8.3,21.9c-3.2,2.3-7,4-11.4,5.1C65.8,312.5,61.2,313.1,56.5,313.1
	z"/>
<path class="st0" d="M146.7,313.1c-11.4,0-21.5-2.4-30.3-7.2c-8.8-4.8-15.8-11.3-20.9-19.6s-7.7-17.7-7.7-28.3
	c0-10.7,2.6-20.2,7.7-28.5s12.1-14.8,20.9-19.5s18.9-7.1,30.3-7.1c11.3,0,21.3,2.4,30.2,7.1c8.9,4.7,15.8,11.2,20.9,19.4
	c5,8.2,7.6,17.8,7.6,28.6c0,10.6-2.5,20-7.6,28.3c-5,8.3-12,14.8-20.9,19.6S157.9,313.1,146.7,313.1z M146.7,287.7
	c5.2,0,9.8-1.2,13.9-3.6c4.1-2.4,7.4-5.8,9.7-10.2c2.4-4.4,3.6-9.7,3.6-15.8c0-6.2-1.2-11.5-3.6-15.9c-2.4-4.4-5.6-7.8-9.7-10.1
	s-8.7-3.6-13.9-3.6s-9.8,1.2-13.9,3.6c-4.1,2.4-7.4,5.8-9.8,10.1c-2.4,4.4-3.7,9.7-3.7,15.9c0,6.1,1.2,11.4,3.7,15.8
	s5.7,7.9,9.8,10.2C136.9,286.5,141.5,287.7,146.7,287.7z"/>
<path class="st0" d="M213.3,230.8V207h74.1v23.9L213.3,230.8L213.3,230.8z M269.7,313.1c-12.6,0-22.4-3.2-29.4-9.6
	s-10.5-16-10.5-28.7V181h31v93.4c0,4.5,1.2,8,3.6,10.4c2.4,2.5,5.6,3.7,9.7,3.7c4.9,0,9.1-1.3,12.5-4l8.4,21.9
	c-3.2,2.3-7,4-11.4,5.1C279.1,312.5,274.5,313.1,269.7,313.1z"/>
<path class="st0" d="M357.6,313.1c-8.9,0-16.8-1.7-23.8-5.2s-12.4-8.7-16.2-15.8c-3.8-7.1-5.8-16.1-5.8-27.1v-60.4h31v55.9
	c0,8.9,1.9,15.4,5.7,19.6c3.8,4.2,9.1,6.3,16,6.3c4.8,0,9-1,12.7-3.1s6.6-5.2,8.8-9.5c2.1-4.3,3.2-9.7,3.2-16.2v-52.9h31v106.9
	h-29.4v-29.4l5.4,8.5c-3.6,7.4-8.9,13-15.8,16.8S365.8,313.1,357.6,313.1z"/>
</svg>
