<?xml version="1.0" encoding="utf-8"?>
<!-- Generator: Adobe Illustrator 27.9.2, SVG Export Plug-In . SVG Version: 6.00 Build 0)  -->
<svg version="1.1" id="Calque_1" xmlns="http://www.w3.org/2000/svg" xmlns:xlink="http://www.w3.org/1999/xlink" x="0px" y="0px"
	 viewBox="0 0 255 189.9" style="enable-background:new 0 0 255 189.9;" xml:space="preserve">
<style type="text/css">
	.st0{fill:#238DCD;}
</style>
<g>
	<path class="st0" d="M0.2,45.9V31.5h44.9V46L0.2,45.9L0.2,45.9z M34.4,95.8c-7.6,0-13.6-1.9-17.8-5.8c-4.2-3.9-6.4-9.7-6.4-17.4
		v-57H29v56.7c0,2.7,0.7,4.9,2.2,6.3c1.5,1.5,3.4,2.2,5.9,2.2c3,0,5.5-0.8,7.6-2.4l5,13.3c-1.9,1.4-4.2,2.4-6.9,3.1
		C40.1,95.5,37.3,95.8,34.4,95.8z"/>
	<path class="st0" d="M80.4,95.8c-5,0-9.4-0.8-13-2.6c-3.6-1.8-6.4-4.1-8.3-7c-1.9-3-2.9-6.3-2.9-10c0-3.9,1-7.2,2.9-10.1
		c1.9-2.9,4.9-5.2,9-6.8c4.1-1.6,9.5-2.5,16-2.5h17.2v11H85.9c-4.4,0-7.5,0.7-9.1,2.2c-1.6,1.5-2.5,3.3-2.5,5.4c0,2.4,1,4.3,2.9,5.7
		c1.9,1.4,4.5,2.1,7.8,2.1c3.2,0,5.9-0.7,8.4-2.2c2.5-1.5,4.3-3.7,5.4-6.6l2.9,8.7c-1.4,4.2-3.9,7.3-7.5,9.5
		C90.7,94.7,86.1,95.8,80.4,95.8z M100.1,94.9V82.2l-1.2-2.8V56.8c0-4-1.2-7.2-3.7-9.4C92.8,45.1,89,44,83.9,44
		c-3.5,0-6.9,0.5-10.2,1.6s-6.2,2.5-8.5,4.4l-6.7-13.2c3.5-2.5,7.8-4.4,12.8-5.8c5-1.3,10.1-2.1,15.2-2.1c9.9,0,17.6,2.3,23.1,7
		s8.2,11.9,8.2,21.8v37H100.1L100.1,94.9z"/>
	<path class="st0" d="M127,45.9V31.5h44.9V46L127,45.9L127,45.9z M161.3,95.8c-7.6,0-13.6-1.9-17.8-5.8c-4.2-3.9-6.4-9.7-6.4-17.4
		v-57h18.8v56.7c0,2.7,0.7,4.9,2.2,6.3c1.5,1.5,3.4,2.2,5.9,2.2c3,0,5.5-0.8,7.6-2.4l5.1,13.3c-1.9,1.4-4.2,2.4-6.9,3.1
		C166.9,95.5,164.1,95.8,161.3,95.8z"/>
	<path class="st0" d="M196.6,21c-3.5,0-6.2-1-8.4-3c-2.2-2-3.3-4.5-3.3-7.5S186,5,188.1,3c2.2-2,5-3,8.4-3c3.5,0,6.2,0.9,8.4,2.9
		c2.2,1.9,3.3,4.3,3.3,7.3c0,3.2-1.1,5.7-3.2,7.8C202.9,20,200.1,21,196.6,21z M187.2,94.9V30H206v64.8H187.2L187.2,94.9z"/>
	<path class="st0" d="M0.2,140v-14.4h44.9v14.5L0.2,140L0.2,140z M34.4,189.9c-7.6,0-13.6-1.9-17.8-5.8s-6.4-9.7-6.4-17.4v-56.9H29
		v56.7c0,2.7,0.7,4.9,2.2,6.3s3.4,2.2,5.9,2.2c3,0,5.5-0.8,7.6-2.4l5,13.3c-1.9,1.4-4.2,2.4-6.9,3.1
		C40.1,189.6,37.3,189.9,34.4,189.9z"/>
	<path class="st0" d="M89.1,189.9c-6.9,0-13-1.5-18.4-4.4c-5.3-2.9-9.6-6.9-12.7-11.9s-4.7-10.7-4.7-17.2c0-6.5,1.6-12.3,4.7-17.3
		c3.1-5,7.3-9,12.7-11.8s11.5-4.3,18.4-4.3c6.9,0,12.9,1.5,18.3,4.3c5.4,2.9,9.6,6.8,12.7,11.8c3,5,4.6,10.8,4.6,17.3
		c0,6.4-1.5,12.1-4.6,17.2c-3,5-7.3,9-12.7,11.9C102.1,188.5,95.9,189.9,89.1,189.9z M89.1,174.5c3.2,0,5.9-0.7,8.4-2.2
		c2.5-1.5,4.5-3.5,5.9-6.2c1.5-2.7,2.2-5.9,2.2-9.6c0-3.8-0.7-7-2.2-9.6c-1.5-2.7-3.4-4.7-5.9-6.1s-5.3-2.2-8.4-2.2
		c-3.2,0-5.9,0.7-8.4,2.2c-2.5,1.5-4.5,3.5-5.9,6.1c-1.5,2.7-2.2,5.9-2.2,9.6c0,3.7,0.7,6.9,2.2,9.6c1.5,2.7,3.5,4.8,5.9,6.2
		C83.2,173.8,86,174.5,89.1,174.5z"/>
	<path class="st0" d="M129.5,140v-14.4h44.9v14.5L129.5,140L129.5,140z M163.8,189.9c-7.6,0-13.6-1.9-17.8-5.8
		c-4.2-3.9-6.4-9.7-6.4-17.4v-56.9h18.8v56.7c0,2.7,0.7,4.9,2.2,6.3c1.5,1.5,3.4,2.2,5.9,2.2c3,0,5.5-0.8,7.6-2.4l5.1,13.3
		c-1.9,1.4-4.2,2.4-6.9,3.1C169.5,189.6,166.7,189.9,163.8,189.9z"/>
	<path class="st0" d="M217.1,189.9c-5.4,0-10.2-1-14.4-3.2c-4.2-2.1-7.5-5.3-9.8-9.6c-2.3-4.3-3.5-9.8-3.5-16.4v-36.6h18.8V158
		c0,5.4,1.2,9.3,3.5,11.9c2.3,2.5,5.5,3.8,9.7,3.8c2.9,0,5.5-0.6,7.7-1.9s4-3.2,5.3-5.8c1.3-2.6,1.9-5.9,1.9-9.8v-32.1H255V189
		h-17.8v-17.8l3.3,5.2c-2.2,4.5-5.4,7.9-9.6,10.2S222,189.9,217.1,189.9z"/>
</g>
</svg>
