<?xml version="1.0" encoding="utf-8"?>
<!-- Generator: Adobe Illustrator 28.2.0, SVG Export Plug-In . SVG Version: 6.00 Build 0)  -->
<svg version="1.1" id="Calque_1" xmlns="http://www.w3.org/2000/svg" xmlns:xlink="http://www.w3.org/1999/xlink" x="0px" y="0px"
	 viewBox="0 0 916.2 546.4" style="enable-background:new 0 0 916.2 546.4;" xml:space="preserve">
<style type="text/css">
	.st0{fill:#B3E8D1;}
	.st1{fill:#A85C00;}
	.st2{fill:#8BC6AB;}
	.st3{fill:#6FA88D;}
	.st4{fill:#632F0B;}
	.st5{fill:#4F2505;}
	.st6{fill:#CC771B;}
	.st7{fill:#7F4200;}
	.st8{fill:#CDDEA3;}
	.st9{fill:#5F7571;}
	.st10{fill:#4C5E5B;}
	.st11{fill:#FFFFFF;}
	.st12{fill:#889996;}
	.st13{fill:#FFD2EC;}
	.st14{fill:#DDDDDD;}
	.st15{fill:#FFBBF1;}
	.st16{fill:#FF97EB;}
	.st17{fill:#86A62C;}
	.st18{fill:#A36133;}
	.st19{fill:#7F461F;}
	.st20{fill:#596D16;}
	.st21{fill:#737B3B;}
	.st22{fill:#FFB98A;}
	.st23{fill:#A4C552;}
	.st24{fill:#384240;}
	.st25{fill:#B1BA8E;}
	.st26{fill:#1C0D00;}
</style>
<g>
	<path class="st0" d="M890,272.6c0.1-2.4-0.8-4.5-1.4-6.7c5.6-2.5,11.4-3.6,17.4-2.5c6.7,1.2,10.1,7.2,9.1,15.5
		c-3.3-6.6-8-8.9-15.3-8C896.6,271.3,893.4,272.4,890,272.6z"/>
	<path d="M489.4,388.4c2.8,7,5.5,14,7.2,21.4c4.1,18.5,5.1,36.9-1.3,55.1c-2.1,5.9-4.7,11.6-8.6,16.6c-0.6-0.6-0.7-1.3-0.9-2.1
		c1.1,0.3,1.3-0.7,1.6-1.3c5.2-8.6,8.6-17.8,10.1-27.7c0.1-1.2,0.1-2.5,0.2-3.7l0,0c0.9-2.6,0.8-5.3,0.8-7.9
		c0-23.1-5.8-44.5-18.4-63.9c-10.9-16.7-25.2-29.1-44.7-34.8c-14.3-4.1-28.8-5.7-43.6-4.6c-3.5-0.9-6.8,0.4-10.2,0.8
		c-1.9,0.3-4.1,0-5.7,1.6c-3.2,0.9-6.4,1.7-9.5,2.8c-5.6,1.9-11.1,4.2-15.9,7.6l-0.1-0.1l-0.1,0.1c-0.2,0.2-0.3,0.3-0.5,0.5l0,0
		c-0.3,0.2-0.7,0.3-1,0.5c-4.9,2.9-9.1,6.8-12.8,11c-0.3,0.2-0.7,0.4-1,0.7c-7.1,8.4-11.9,18.1-14.9,28.7
		c-1.9,6.7-2.9,13.6-3.4,20.5c-0.4,5.3-0.5,10.6,0.4,15.9c0.9-8.1,2.9-15.9,5.9-23.4c1.8-4.3,3.9-8.5,6.7-12.2
		c1.9-2.5,3.7-5.3,6.7-6.8l0,0c0,0.9-0.8,1.3-1.3,1.9c-5.6,6.8-10.2,14.3-12.5,22.9c-0.1,0-0.2,0.1-0.2,0.1
		c-3.9,12.1-6.1,24.4-2.1,37c1.1,3.5,2,7,4.1,10.2c0.5-2.8,1.1-5.5,2.1-8c1-2.5,1.6-5.2,3.6-7.1c-0.4,1.5-1,2.8-1.5,4.2
		c-1.9,5.7-3.8,11.5-2.3,17.6c3,12.5,8.4,23.7,17.2,33.2c9.6,10.4,21.4,17.5,34.4,22.8c4,1.6,8,3.6,12.4,4.1l0,0
		c0.2,0.4,0.3,0.3,0.5,0c1.1,0.5,1.5,1.8,2.4,2.5c-23.9-6.7-45.1-17.4-58.8-39.2c-4.6-7.3-7.6-15.2-9.5-23.6
		c-0.3-1.2-0.6-2.5-1.1-3.6c-10.8-24.6-11.3-49.7-3-75.1c0.4-1.3,0.6-2.5,0.4-3.9c-1.7-9.3-1.5-18.8-2.4-28.3
		c-0.3-2.7-0.6-5.3-0.9-7.9c-0.9-0.1-1.2,0.4-1.6,0.7c-28.1,22.1-59.8,36.2-95,42.3c-8.6,1.5-17.2,2-25.9,1.5
		c-11.2-0.7-20.8-5.5-30.1-11.2c-13.9-8.5-26.3-18.9-38.2-30c-29.3-27.2-55.3-57.3-80.3-88.3c-11.6-14.4-22.9-28.9-33.4-44.1
		c-5.4-7.8-10.6-15.9-12.9-25.4c0-0.2-0.3-0.3-0.5-0.4c0-2.7,0-5.4,0-8.1c1.1-0.7,1-2,1.6-3c2.4-4,6.2-6.1,10.5-7.4
		c5.7-1.7,11.6-2,17.5-2c26-0.2,49.3,7.8,70.8,21.9c21.7,14.2,40.7,31.4,58.9,49.8c14.8,15,28.7,30.9,42.9,46.4
		c8.1,8.8,17,16.5,28.3,21c13.2,5.3,26.5,4.8,40,0.9c0.5-0.2,1.1-0.2,1.2-1c0.5,0.5,0.5,1.1,0.6,1.7c-0.2,0.1-0.4,0.3-0.6,0.3
		c-17.2,5.2-33.9,4.5-49.8-4.7c-0.8-0.5-1.6-1.2-2.6-0.8c0-0.7-0.5-1.1-1-1.5c-3.9-2.4-7.4-5.5-10.7-8.6c-5-4.8-9.6-9.9-14.2-15.1
		c-0.9-1-1.6-2.2-3.1-2.5c0.1-0.5,0.1-0.9-0.3-1.3c-1.9-2.1-3.8-4.2-5.7-6.3c-0.4-0.4-0.8-0.5-1.3-0.4c0-0.6-0.3-1-0.7-1.5
		c-2.8-3.1-5.5-6.1-8.3-9.2c-5.4-6-11.1-11.6-16.8-17.3c-1.4-1.4-2.2-3.3-4.2-4.1c-2.3-2.8-4.5-5.6-7.9-7.3c-0.7-1.9-2.3-3-3.7-4.2
		c-8.2-7.2-16.2-14.7-25-21.2c-1.8-1.3-3.2-3.3-5.7-3.6c0-0.2,0-0.6-0.1-0.7c-3.8-2.9-7.5-5.8-11.8-7.8c-0.6-0.8-1.4-1.2-2.3-1.7
		c-5.7-3.3-11.3-6.5-17.3-9.3c-6.8-3.1-13.6-5.9-20.9-7.3c-3.6-1.4-7.3-1.8-11.1-2c-9.8-1.1-19.7-2-29.6-0.6
		c-4.4,0.7-8.7,1.7-12.2,4.7c-1.2,1.1-2.8,2-2.6,4.1l0,0c-0.5-0.2-0.5,0.2-0.7,0.5c-0.7,2-0.9,4-0.6,6.1c0,0.6,0,1.3,0.1,1.9
		c1.5,7.8,5.3,14.6,9.6,21.1c10.3,15.6,22,30.3,33.5,44.9c10.9,13.8,22.2,27.3,33.7,40.6c9.5,10.9,19.3,21.5,29.3,31.9
		c4.7,4.9,9.7,9.6,14.6,14.4c8,7.8,16.4,15.2,25.2,22.1c9.1,7.3,18.7,14,29.3,18.9c5.4,2.5,11,4.7,17,5c12.3,0.7,24.5-0.5,36.6-3.2
		c13.7-3.1,26.9-7.4,39.7-13.1c16.5-7.4,32.1-16.2,46-27.8c1.2-1,1.3-1.8,1-3.1c-0.6-2.7-1.2-5.4-1.7-8.1c0.5,0.2,1,0.3,1.5,0.5
		c4.1,15.1,3.5,30.7,5.3,46.2c0.5-0.1,0.7-0.1,0.7-0.2c0.3-0.5,0.6-1,0.8-1.5c6.8-14.7,17.6-25.4,32.1-32.6c0.6-0.3,1.5-0.3,1.4-1.3
		c0.8-0.2,1.8,0.2,2.5-0.6c6.2-2.5,12.6-4.5,19.1-5.8c4.4-1,8.8-1.2,13.3-1.6c4.6-0.4,9.1-0.9,13.7-0.4c1.7,0.2,3.5,1,5.3,0.1
		c2.5,0.8,5.2,0.4,7.7,1c0.4,0.6,0.9,0.5,1.5,0.5c3.3-0.2,6.2,1.4,9.5,1.5c0.3,0.1,0.5,0.3,0.8,0.4c7,1.8,13.8,4,20.1,7.5
		c3.1,1.7,5.7,4.3,9.1,5.4c0.1,0.3,0.1,0.7,0.3,0.9c2.9,2.1,5.3,4.7,8,6.9c1.4,1.2,2,3.3,4.1,3.6c-0.1,0.8,0.7,1,1,1.5
		c2.4,3.1,4.7,6.3,7.1,9.4c0.8,1.3,1.5,2.6,2.4,3.8c2.4,3.4,3.7,7.3,6.2,10.6C489.2,387.5,489.3,387.9,489.4,388.4z"/>
	<path d="M485.9,479.4c0.2,0.7,0.3,1.5,0.9,2.1c0.5,5.5,1.5,11,1.6,16.6c0.1,9.4-0.7,18.6-4.5,27.3c-0.7,1.5-1.5,2.9-2.3,4.4
		c-0.6,1.2-1.1,1.4-1.9,0c-4.5-8-11.6-13.1-19.8-16.8c-1.9-0.9-2.3-0.4-2.4,1.6c-0.4,9.1-1.6,18.2-4.5,26.9
		c-0.6,1.7-1.3,3.4-2.4,4.9c-1.9,0-3.8,0-5.7,0c-2-1.1-4.2-0.9-6.4-1.2c-16.5-2.7-31.7-8.3-44.4-19.6c-0.2-0.2-0.5-0.3-0.8-0.5
		c-0.9-0.8-1.3-2-2.4-2.5c-0.2,0-0.3,0-0.5,0l0,0c-0.6-0.9-1.2-1.8-2-2.7c-3-3.4-5.6-7.1-7.5-11.2c-0.8-1.7-1.9-2.6-3.7-3.4
		c-8.6-3.6-15.3-9.3-18.2-18.5c1.4,0.2,2.8,0.4,4.2,0.6c11.9,1.9,21.7-1.7,29.2-11.3c5.3-6.8,8.8-14.5,12.4-22.2
		c3.5-7.5,7.6-14.4,13.8-20c10.3-9.1,22.5-10.9,34.9-5.1c0.5,0.2,1.1,1.2,1.8,0.2c0.3-0.4,0.1-0.9,0.1-1.4
		c-0.2-6.7,0.4-13.3,3.3-19.5c3.1-6.7,8.6-8.2,14.9-4.3c5.5,3.4,8.3,8.7,10.9,14.3c1.6,3.5,2.2,7.2,3.3,10.8c0,0.6,0.1,1.2,0.1,1.8
		c0,0.2,0,0.4,0,0.5c0,0.8,0.1,1.6,0.1,2.4c-0.2,0.3-0.1,0.7,0.1,0.9c0,0.5,0,0.9,0,1.4c0,0.2-0.1,0.3-0.1,0.5
		c-0.1,0.8-0.1,1.6-0.2,2.4c0,0.2,0,0.3-0.1,0.5c-1,5.6-3.3,10.4-8.8,12.8c-2.2,1-2,1.8-1.1,3.5
		C481.6,463.3,484.5,471.1,485.9,479.4z M408.4,450L408.4,450c-0.2,0.3-0.4,0.6-0.6,0.9c-0.7,0.7-0.9,1.6-1.3,2.5
		c-3.5,7.2-6.7,14.5-11.2,21.1c-1.2,1.8-3.3,3.1-3.6,5.4c-0.4,0.2-0.9,0.3-1.2,0.6c-7.2,6.7-15.5,9.9-25.4,8.5
		c-1.2-0.2-2.4-0.2-3.9-0.3c4.3,8.9,11.6,13.6,20.4,16.6c5,1.7,10.1,2.7,15.3,3.1c5.9,0.5,11.7,0.5,17.6,0.1c5-0.3,10-1.3,15-1.6
		c6.5-0.4,13,0,19.4,1.4c12.4,2.7,23.4,7.8,30.7,18.8c0.9,1.3,1.4,1.2,2-0.2c2.8-5.5,4.4-11.3,5.1-17.5c0.2-2.6,0.5-5.2,0.5-7.8
		c0-14.5-2.9-28.4-8.8-41.6c-4.7-10.5-10.9-19.9-20.4-26.7c-6.2-4.4-13-7.3-20.7-6.2c-13.6,1.8-22.2,10.4-28.2,22.1c0,0,0,0,0,0
		C408.8,449.3,408.6,449.6,408.4,450z M473.8,440.6c-0.1,1.4-1.2,2-2.1,2.7c-1.1,0.7-0.6,1.2-0.1,1.9c0.5,0.7,0.9,1.1,1.9,0.6
		c3.3-1.8,5.9-9.2,4.5-12.7c-0.6,0.1-0.7,0.8-1.1,1.2c-1.7,1.6-1.2,4.2-2.8,5.9c0-1.1-0.3-1.9-1.6-1.8c-0.7,0.1-1.1,0.8-0.9,1.4
		C472,440.8,472.7,441.2,473.8,440.6z M439.4,508.3c-1.9-0.2-3.8-0.3-5.7-0.1c-6.8,0.3-13.6,0.8-20.7,1.9c4.8,6.1,10,11.3,15.9,15.7
		c4.1,3,8.1,6,13,7.7c1.1,1.1,1.3,0.3,1.4-0.7c0.9-7.9,0-15.7-2-23.4C441.1,508.4,440.4,508.1,439.4,508.3z M486.1,429.9
		c-0.9-7.2-3.5-13.8-8-19.6c-1.8-2.3-4.1-4.2-6.9-5.3c-5-1.9-8.8-0.6-11.1,4.2c-3.5,6.9-3.6,14.3-2.6,21.8c0.5-1.6,0.7-3.2,1.2-4.7
		c1.3-4,3.3-7.4,7.8-8c4.5-0.6,7.5,2,9.9,5.4c0.4,0.6,0.7,1.2,1.1,1.9c1.6,3,2,6.3,2.2,9.7c-0.6,4.5-1.7,8.6-5.7,11.5
		c-1.5,1.1,0.6,2.1,0.9,3.2c0.7,2.1,1.9,2,3.7,1.1c3.3-1.7,5.7-4.3,6.9-7.8C486.9,438.9,486.9,434.4,486.1,429.9z M446.6,544.4
		c3.6,0.6,3.6,0.6,4.8-3c2.6-7.9,4-16,4.4-24.2c0.3-5.8,0.3-5.8-4.5-7c-0.2,0-0.3-0.1-0.5-0.1c-1.1-0.2-1.8,0-1.8,1.4
		c-0.1,2.8-0.2,5.5-0.5,8.3c-0.5,4.6-0.6,9.3-1.9,13.8c-0.7,2.6-1.8,3-4.2,1.9c-11.2-5.1-20.5-12.6-28.3-22.1
		c-2.1-2.6-4.2-4-7.6-3.5c-1.9,0.3-3.8,0.1-5.7,0.1c-6.4-0.1-12.6-1-19-3c2.4,5,5.2,9.2,8.7,12.9c7.1,7.7,15.6,13.3,25.3,17.3
		C425.7,541.4,435.9,544,446.6,544.4z M464.5,424.6c-1.6,0-2.9,1.4-2.9,3.1c0,1.8,1.4,3.3,3.1,3.2c1.9-0.1,2.6-1.3,2.8-3
		C467.6,426.2,466.1,424.6,464.5,424.6z"/>
	<path d="M916.2,282c-0.1,0.1-0.4,0.1-0.4,0.2c-2.2,11.8-8.1,22-14.5,31.9c-14,21.8-32.1,39.8-52.5,55.5
		c-44.3,34.1-93.4,58.9-147.3,73.8c-10.7,2.9-21.5,4.8-32.6,5.7c-14.8,1.2-28.1-3.1-40.4-11c-16-10.2-28.6-23.9-40.2-38.6
		c-10.1-12.8-18.9-26.5-26.7-40.9c-0.4-0.7-0.7-1.4-1-2.1c0.5,0,1.1,0,1.6,0c1.1,2.6,2.5,4.9,3.8,7.3c10.1,17.8,21.8,34.4,35.7,49.5
		c8.4,9.2,17.7,17.6,28.3,24.2c10.4,6.4,21.5,10.6,33.8,10.4c5.5-0.1,11.1-0.6,16.5-1.5c16.6-2.6,32.8-7.3,48.6-13
		c19.7-7.1,38.9-15.6,57.4-25.5c10.4-5.6,20.7-11.4,30.7-17.7c9.5-6.1,18.8-12.3,27.7-19.3c7.4-5.8,14.7-11.8,21.6-18.2
		c7.2-6.7,14.1-13.7,20.4-21.3c7.7-9.2,14.5-19.1,20.1-29.7c2.6-5,5.1-10,6.3-15.6c0.4-2.7,1.7-5.2,1.5-8c1-7.6-2.2-13.1-8.6-14.2
		c-5.7-1-11.2,0-16.5,2.3c-3.2,0.7-6.1,2-9.1,3.3c-4.7,2-9.3,4.1-13.9,6.2c-6.5,3-12.9,6-19.3,9.1c-3.4,1-6.4,2.9-9.7,4.2
		c-0.5,0.2-0.8,0.5-0.8,1c-0.8-0.1-1.4,0.3-2,0.5c-7.9,3.3-15.7,6.7-23.6,9.9c-7.3,3-14.7,5.5-22.2,7.8c-4.8,1.3-9.7,2.6-14.5,3.8
		c-0.5,0.1-0.6,0.5-0.7,0.8c-1,0-2,0.1-3,0.3c-8.8,1.9-17.6,3.5-26.5,4.6c-4.7,0.6-9.3,1.6-13.9,2.4c-1.2-0.3-2.4,0.2-3.5,0.4
		c-4.4,0.9-8.9,1.2-13.2,2.8c-0.8,0.1-1.6,0.1-2.3,0.3c-6.1,1.3-12.2,2.5-18.2,4.1c-9.1,2.4-18.3,4.7-27,8.5
		c-5.9,1.7-11.3,4.6-16.3,8.1c-1.5,1-2.9,1.4-4.6,1.2c-8.1-0.7-15-4.4-21.4-9.1c-2.3-1.7-4.2-3.9-6.7-5.2c0.4-0.4,0.8-0.7,1.4-0.7
		c3.9,3.1,7.7,6.4,12.1,8.8c4.7,2.6,9.6,4.6,15,4.9c0.9,0.1,1.9,0.1,2.7-0.5c9-6.4,19.3-10,29.7-13.2c20.7-6.4,41.9-10.9,63.3-13.6
		c35.3-4.4,68.2-16,100.1-31.1c13.9-6.5,27.5-13.5,41.8-19.1c5.6-2.2,11.3-4.2,17.4-4.6c4.4-0.3,8.5,0.3,12,3.5
		c1.7,1.6,2.2,3.9,3.5,5.7C916.2,275,916.2,278.5,916.2,282z"/>
	<path d="M351,113.1c3.2-11.1,7.5-21.7,12.4-32.2c8.7-18.7,19.4-36.1,33.7-51.1c12.5-13.3,27.1-23.5,44.6-29.1c0.4-0.1,1,0,1.1-0.7
		c1.4,0,2.9,0,4.3,0c2.1,1.8,2.3,4.3,2.1,6.9c-0.2,3.8-0.9,7.5-0.4,11.3c-0.6,0.3-1.2,0.6-1.8,0.9c1.2-1.3,0.1-2.7,0.3-4.1
		c0.5-3.2,0.3-6.4,0.6-9.7c0.2-1.7-0.1-3.8-2.7-3.9c-0.6,0.1-1.3,0.1-1.9,0.2c-6.7,2-13.1,4.7-19.2,8.2c-0.3,0.2-0.7,0.4-1,0.6
		c0,0,0,0,0,0c-0.3,0.1-0.5,0.2-0.5,0.5l0,0c-0.4-0.1-0.8,0.1-1,0.5l0,0c-2.2,0.9-4,2.3-5.8,3.8c-0.1,0.2-0.3,0.4-0.4,0.5
		c0,0,0,0,0,0c-0.9,0-1.4,0.7-2,1.2c-7.3,5.5-13.9,11.8-19.9,18.8c-13.9,16.1-24.3,34.3-32.7,53.7c-3.2,7.4-6.2,14.9-8.4,22.8
		C352.3,112.7,351.6,112.9,351,113.1z"/>
	<path d="M351,113.1c0.6-0.2,1.3-0.4,1.6-1c2.7-2,5.6-3.8,8.1-6.2c0.7-0.4,1.4-0.7,2-1.2c8.2-5.5,16.3-11.4,24.9-16.4
		c13.3-7.8,27.2-14.2,41.7-19.3c6.6-2.4,13.3-4.2,20-6.1c0.7-0.2,1.1-0.6,1.6-1c1.1,1.1,2.2-0.3,3.4-0.1c0.2-0.1,0.3-0.3,0.5-0.4
		c0,0,0,0,0,0c0.7,0,1.3-0.1,2-0.1c12.2-2.8,24.6-4,37.1-4.3c25.5-0.6,50.5,3.1,75.2,9.8c8.3,2.3,16.9,3.6,25.1,6.5
		c25.6,9,45.5,24.7,58.3,48.9c0.4,0.7,0.7,1.4,1,2.2c-0.3,0-0.5,0-0.8,0.1c-0.9-0.2-1-1.1-1.4-1.8c-2.2-3.4-3.7-7.2-6.6-10.2
		c-3.4-5.9-8.2-10.6-13.1-15.3c-9.5-9.1-20.6-15.7-32.8-20.6c-9.5-3.8-19.4-6.4-29.5-7.9c-4.8-1.1-9.6-0.6-14.3,0.8
		c-6.3,1.9-11.7,5.4-16.8,9.7c-2,1.7-2.2,3-1.4,5.3c1.3,3.6,1.8,7.5,2.4,11.3c1,6.6,1.7,13.2,1.9,19.8c0,0.8,0.2,1.7,1.1,1.4
		c1.7-0.5,3.3,0.1,4.9,0.2c7.9,0.3,15.5,1.9,23.1,3.7c16.9,3.9,33.4,9.3,49.5,15.8c11.6,4.7,22.8,10,33.9,15.6
		c1.4,0.7,2.6,1.9,4.2,2.1c-0.3,0.5-0.2,1,0,1.6c-0.6-0.2-1.2-0.3-1.8-0.6c-8.3-4.5-16.8-8.6-25.4-12.4
		c-16.8-7.5-34.1-13.7-51.9-18.4c-5.9-1.5-11.7-3.3-17.8-3.9c-2.2-0.4-4.5-1-6.8-1.3c-6.6-0.9-13.2-1.6-19.7,0.9
		c-14.3,5.5-27.3,13-39.4,22.3c-1,0.8-0.9,1.5-0.4,2.4c1.3,3.1,2.7,6.1,3.8,9.2c3.5,9.5,5.1,19.4,6.8,29.4c-0.2,3.5,1,6.9,0.9,10.4
		c0,3,0.4,3.4,3.4,3.5c4.7,0,9.3,0.8,13.9,1.6c13.8,2.6,27.2,6.7,40.4,11.6c13,4.8,25.8,10.1,38.4,16c14.6,6.9,29.1,14.1,43.3,21.9
		c-0.1,0.6-0.4,0.9-0.9,0.9c-1.4-0.1-2.3-1.1-3.4-1.7c-14.1-7.3-28.3-14.6-42.8-21.2c-16.6-7.5-33.5-14.4-50.9-19.9
		c-4.8-1.5-9.6-3.1-14.6-4c-0.3,0-0.6,0-0.9-0.1c-0.4-0.5-0.9-0.5-1.4-0.4c-5.8-1.3-11.5-2.6-17.4-3.2c-5-0.5-9.8-0.5-14.4,2.3
		c-13,8-24.6,17.8-36,27.9c-1.1,1-0.9,1.7,0.1,2.5c2.1,1.6,4.1,3.2,6.2,4.8c0.2,0.4,0.5,0.5,0.9,0.5l0,0c2.8,3.2,6.3,5.7,9.4,8.7
		c7.5,7.3,14.5,15,21.3,23.1c7.2,8.6,13.7,17.6,19.9,26.9c6.1,9.1,11.5,18.6,16.8,28.2c-0.7,0.2-1.3,0.3-2,0.5
		c0.2-0.8-0.2-1.4-0.5-2c-5.8-10.3-11.7-20.5-18.5-30.2c-4.3-6.2-8.7-12.2-13.4-18.1c-3.9-4.9-7.9-9.7-12.1-14.3
		c-5.3-5.7-10.7-11.3-16.5-16.4c-0.5-0.5-1.1-0.9-1.6-1.4c-3.8-3.7-8-7-12.2-10.2c-4.7-3.5-10.5-4.3-16.1-5.1
		c-11.5-1.7-23-2.3-34.6-1.8c-5.2,0.2-10.6-0.1-15.6,2.4c-6,3.1-11.8,6.6-17.2,10.6c-3.9,2.9-7.6,5.9-11.4,8.8
		c-1.2,0.1-1.8,1-2.4,1.9l0,0c-0.4,0.1-0.8,0.2-1.1,0.4c-5.6,5-11.4,9.8-16.9,15c-8.8,8.5-17.5,17-25.4,26.4
		c-2.2,2.6-4.9,4.7-6.3,7.9c-0.5-0.2-1-0.4-1.5-0.6c0.2-0.4,0.4-0.9,0.7-1.2c2.9-3.7,6.1-7.2,9.3-10.8c9.6-11,20.1-21.1,31-30.8
		c7.7-6.8,15.7-13.3,24.2-19.1c6.3-4.3,12.5-8.8,19.9-11c2.4-0.7,2.6-1.8,2.1-3.9c-2.5-9.2-5-18.3-8.5-27.2
		c-2-5.2-4.2-10.4-7.2-15.2c-1.6-2.6-3.7-3.7-6.8-3.8c-14.6-0.4-28.9,1.8-43.1,4.5c-11.8,2.2-23.5,5-34.8,9.4
		c-2.1,0.8-4.4,1.4-5.9,3.3c-2.4,0.7-4.6,1.5-6.1,3.7c-5.6,8.1-9.9,17-13.4,26.2c-2,5.3-3.3,10.7-5.1,16c-0.4,0-0.7,0-1.1,0
		c3.6-15.4,9.3-29.9,18.4-42.9c0.7-1,1.4-2.1,2-3.2c15.1-29.6,35.3-55,61.1-76.1C349.5,114.7,350.5,114.1,351,113.1z M377.5,96.9
		c0.9-0.1,1.7-0.2,2.6-0.3c4-0.7,7.9-1.5,11.9-2.1c4.9-0.7,9.9-1.3,14.8-1.7c4.8-0.4,9.7-0.6,14.5,0.1c2.7,0.4,4.7,0.3,7.1-1.5
		c11.8-8.6,24.4-15.9,38.5-20.3c0.5-0.1,0.9-0.3,1.1-0.8c1.5-2.9,2.9-5.8,4.4-8.7c0.8-1.4,0-1.7-1.2-1.5c-3.4,0.6-6.8,1.2-10.2,1.8
		c-13.9,2.5-27.3,6.6-40.3,11.8c-11.1,4.4-22,9.5-32.2,15.8C384.6,91.8,380.7,93.9,377.5,96.9c-0.3,0-0.5,0.1-0.7,0.2
		c0,0.1,0.1,0.2,0.1,0.2C377.1,97.1,377.3,97,377.5,96.9z M476.2,60.1c-0.7,0-1.2,0.2-1.6,0.8c-1.7,3-3.5,6-4.6,9.3
		c0,0.1-0.1,0.1-0.1,0.2c0-0.1,0.1-0.1,0.1-0.2c7.4,0.2,14.7-0.2,22.1,0.4c8.4,0.7,16.7,1.5,24.9,3.1c5.7,1.1,11.4,2.1,16.4,5.2
		c1.6,1,2.4,0.6,3.6-0.5c3.8-3.4,8-6.1,12.6-8.3c3.8-1.8,7.9-2.5,12.5-3.5c-6.2-1.5-11.9-2.9-17.7-3.6c-9-2.1-18.2-3-27.4-3.8
		c-4.7-0.4-9.4-0.3-14-0.6c-6-0.5-12,0.2-18,0.4C482.1,59,479.1,59.1,476.2,60.1z M377.8,99.1c-2.7,0.2-5.2,0.8-7.4,2.2
		c-12.4,7.8-23.7,17-34.3,27c-9,8.6-17.3,17.9-24.9,27.8c-5.3,6.9-10.2,14.1-14.5,21.7c-2.7,4-4.8,8.3-7.4,13.1
		c2.7-1.2,4.8-2.2,6.8-3.1c10.6-4.5,21.8-7.2,33-9.5c6.6-1.4,13.2-2.6,19.9-3.4c5.1-0.6,10.2-1.5,15.3-1.8
		c5.2-0.3,10.5-0.6,15.7,0.2c1.1,0.2,1.7-0.2,2.4-1c2.9-3.4,5.9-6.9,9-10.1c5.4-5.6,10.8-11.2,16.9-16c5.1-4,10.1-8.2,16.4-10.4
		c0.9-0.3,1.3-0.7,1.4-1.7c0.3-2.6,0.7-5.2,1-7.8c0.8-8,1.1-16.1-0.3-24c-1.4-7.8-1.6-8.6-10.1-8.7c-11.5-0.2-22.7,1.4-33.9,3.5
		C381.1,97.8,379.1,97.5,377.8,99.1z M429.1,110.6c-0.5,1.8,0.5,3.5,0.3,5.2c-0.6,5.7-0.3,11.6-1.5,17.2c-0.6,2.5,0.8,2.1,2.1,1.9
		c4.5-0.9,9.1-1.1,13.7-1.3c11.4-0.3,22.8,0.3,34,2.4c4.6,0.9,9.4,1.8,13.4,4.6c1.7,1.2,2.8,1.6,4.5-0.1c1-1,2.4-1.8,3.6-2.7
		c5.6-4,11.5-7.6,17.6-10.8c6.9-3.7,13.8-7.5,21.6-9.2c1.1-0.2,1.3-0.9,1.3-1.9c0-1.9-0.3-3.8-0.4-5.7c-0.5-7.7-1.6-15.2-2.9-22.8
		c-1-5.7-4.2-8.9-9.8-10.2c-4.1-0.9-8.1-1.9-12.3-2.7c-7.2-1.3-14.5-2.2-21.9-2.5c-0.9,0-1.9-0.1-2.8-0.1c-0.3-0.4-0.6-0.4-1-0.3
		c-4.2-0.1-8.4,0-12.6-0.2c-4.8-0.2-9.3,0.8-13.7,2.6c-7.5,2.9-14.6,6.6-21.5,10.7c-4.3,2.6-8.7,5.3-12.6,8.5
		c-0.8,0.7-2.4,1.1-1.7,2.7C428.5,100.7,428.9,105.7,429.1,110.6z M393.7,197.5c2.6,8.1,5.3,16.2,7.1,24.6c0.3,1.4,1.1,1.8,2.4,1.7
		c2.1-0.2,4.3-0.4,6.4-0.4c10.2-0.1,20.4,0.1,30.6,1.4c6.5,0.8,13,1.6,19,4.6c0.9,0.4,1.4,0.3,2.1-0.4c8.1-7.6,16.5-14.7,25.5-21.3
		c5.1-3.7,10.4-7.3,16.2-9.8c1.6-0.7,2-1.4,1.9-2.9c-0.5-5.7-1-11.3-1.9-16.9c-1.6-9.7-3.8-19.3-7.6-28.3c-1.1-2.6-1.7-5.5-4.2-7.3
		c-4.6-3.2-9.9-4.3-15.4-5c-8.2-1.8-16.5-2-24.8-2.4c-5.1-0.2-10.1,0.2-15.2,0.5c-6.8,0.4-13.3,2-18.9,6.2
		c-3.6,2.7-7.1,5.3-10.4,8.2c-8.3,7.2-15.9,15.1-22.9,23.5c-0.8,1-0.7,1.5,0,2.4c1.5,2.1,2.8,4.2,4,6.5
		C389.8,187.3,391.6,192.5,393.7,197.5z"/>
	<path d="M267.2,237.6c0.4,0,0.7,0,1.1,0c-0.3,2.3-0.7,4.5-0.8,6.8c-0.5,5.8,0,11.5,1.8,17c1.7,6.6,5,12.3,9.4,17.4
		c5.8,6.6,13.1,11.2,21.2,14.4c4,1.6,8.1,3,12.2,4.4c0.5,0.2,1,0.4,1.5,0.6c20.8,6.7,42.1,11.6,63.6,15.9
		c11.6,2.3,23.2,4.2,34.8,6.1c8.7,1.4,17.4,2.4,26.1,3.4c6.4,0.7,12.7,1.3,19.1,2c7.9,0.8,15.8,1.4,23.7,1.7
		c9.4,0.4,18.8,0.2,28.1,0.1c3,0,6-0.4,9-0.7c5.8-0.7,11.6-1.4,17.4-2.1c0.7-0.2,1.3-0.3,2-0.5c2.8-0.5,5.6-1,8.4-1.6
		c11.5-2.6,22.9-5.7,33.9-10.3c14-5.9,26.7-13.9,37.8-24.4c9.2-8.8,17-18.9,23.4-29.9c1.5-2.6,3.9-4.9,4-8.2c0.6,0,0.9-0.3,0.9-0.9
		c0.9-0.5,1.2-1.5,1.6-2.3c8.3-17.2,11.3-35.6,12.2-54.5c0.6-11.9,0.2-23.9-1.4-35.8c-0.2-0.5-0.2-1,0-1.6c-0.4-2.9-0.8-5.8-1.2-8.6
		c-1-7.2-2.2-14.3-4.2-21.3c0.3,0,0.5,0,0.8-0.1c0.3,0.5,0.5,1,0.8,1.5c0.4,0.5,0.9,0.9,1.3,1.4c0.2,1.4,1.3,2.3,2,3.4
		c3,4.6,5.3,9.6,7.9,14.4c2.1,5.8,4.3,11.5,5.9,17.5c0,0.5-0.1,1,0.4,1.4c1.4,7.2,3,14.5,3,21.9c0,3.3,0.6,6.4,1.5,9.5
		c3.1,11,2.7,22.2,1.1,33.3c-1.5,10.3-4.4,20.2-8.6,29.6c-1,2.2-0.9,4.5-1.4,6.7c-2.4,11.7-8.2,21.8-15.5,31
		c-8.4,10.6-18.4,19.7-28.9,28.3c-2,1.6-3.8,3.5-4.6,6c-0.6,0-1,0.3-1.4,0.7c-1.1,1.4-2.6,2.4-3.4,4c-0.6,0-1,0.5-1.4,0.9
		c-6.5,6-13.8,10.6-21.9,14c-9,3.8-18.4,5.7-28.1,6.2c-0.5,0-1.1,0-1.6,0c-3.1,0.3-6.1,1.1-9,2.2c-1.1,0.2-2.2-0.2-3.2,0.5
		c-6.6,1.2-13.3,2.3-20,3.1c-6.2,0.7-12.5,1.1-18.7,1.5c-12.1,0.5-24.1,0.2-36.1-0.6c-0.3-0.5-1.1-0.7-1-1.5
		c3.2-0.1,6.4,0.6,9.7,0.5c4-0.1,4-0.2,4.2-4.1c0.4-9-1.2-17.6-4-26.1c-0.8-2.5-1.9-3.9-4.6-3.3c-0.4-0.1-0.7-0.4-1.1-0.4
		c-5.8,0-11.5-0.6-17.3-1.1c-5.6-0.4-11.1-1.1-16.7-1.7c-4.9-0.5-9.7-1-14.6-1.6c-2.2-0.3-4.4-0.7-6.5-1c-1.1-0.1-1.8,0.3-1.5,1.5
		c0.8,3.6,0.2,7.3,0.5,10.9c-0.5,0-1.1,0.1-1.5-0.5c0-2.1,0.1-4.3,0-6.4c-0.2-5.5-0.2-5.5-5.5-6.6c-0.8-0.2-1.7-0.2-2.6-0.3
		c-0.4-0.1-0.7-0.4-1.1-0.4c-12-1.6-23.9-3.9-35.8-6.2c-4.3-0.8-8.5-2.1-12.8-2.4c-1.4-0.4-2.9-0.8-4.3-1.2
		c-0.8-0.3-1.3-0.1-1.8,0.6c-5.1,7-9.5,14.3-11.2,23c-0.4,2,0.2,2.5,1.8,2.9c4.7,1.2,9.4,2.5,14.1,3.8c-0.7,0.8-1.7,0.4-2.5,0.6
		c-4.9-1.2-9.8-2.5-14.7-3.8c-8.6-2.3-17.1-4.6-25.7-6.8c-0.5-0.2-1-0.3-1.5-0.5c-5.7-2.1-11.4-4.1-17.2-6.2
		c-8.3-3.7-16.3-7.8-23.2-14c-1-0.8-1.5-2.2-3-2.4c0-0.6-0.1-1.2-0.6-1.7c-5.7-2.2-9.2-6.7-11.8-11.9c-7-13.6-9-28-5.7-43
		c0.3-1.5,0.8-2.9,1.4-4.3C257.5,242.4,261.1,238.6,267.2,237.6z M671,170.3c-0.1-1.6-0.1-3.1-0.4-4.7c-2.2-10.1-6-19.7-11-28.8
		c-0.9-1.7-1.7-3.5-3.3-5c-0.1,0.4-0.2,0.7-0.2,0.9c0.1,0.5,0.2,1.1,0.3,1.6c1.9,11.2,3.4,22.5,4.1,33.9c0.3,5.3,0.2,10.6,0.5,15.9
		c0,1-0.1,2.1-0.1,3.1c0,0.7,0.1,1.4,1,1.2c3.3-0.9,6.4,0.1,9.4,1.2c1.5,0.5,1.9,0.2,2-1.4c0.1-4-0.1-7.9-0.7-11.8
		C672.4,174.3,672.9,171.9,671,170.3z M660.9,193.2c-0.5,0.9-0.4,2-0.4,3c-0.1,6.7-1.1,13.4-2.3,20c-1.7,9.5-4.3,18.7-8.2,27.5
		c-0.6,1.4-1.1,2.8-1.7,4.2c-1.2,2.5-1.2,2.8,1.6,3c6,0.5,11.3,2.9,16.1,6.4c1.4,1,1.7,0.4,2.2-0.7c1.1-2.9,2.3-5.7,3.3-8.7
		c4.6-14.1,6.8-28.4,5.3-43.3c-0.4-3.4-0.8-6.8-1.9-10c-0.5-1.3-0.9-2.8-2.5-3.2c-2.2-0.7-4.4-1.5-6.6-2
		C662.4,188.9,660.9,190.1,660.9,193.2z M279.7,282.5c-4-4.8-8-9.6-10.3-15.6c-2.8-7.2-4.5-14.6-3.3-22.5c0-1.1,0.1-2.2,0.1-3.3
		c0.1-1.5-0.7-1.8-1.9-1.3c-2.4,1-4.4,2.5-5.8,4.7c-2.9,4.7-4.3,10.1-4.6,15.5c-0.9,13.8,1.7,26.9,9.5,38.7c1.5,2.3,3.5,4.3,6,5.7
		c1,0.6,1.7,0.5,2.1-0.8c2.1-6.6,6.4-11.6,12.1-15.3c1.3-0.9,1.3-1.6,0.1-2.5C282.4,284.7,281.1,283.6,279.7,282.5z M643.2,256.7
		c-1.1,1.8-2.2,3.6-3.4,5.4c-8.5,13.5-18.8,25.2-31.4,35c-2.5,1.9-5.5,3.1-7.3,5.9c-2.6,0.3-4.2,2.2-6.8,3.5
		c5.1,1.3,9.3,3.5,13.4,5.8c4.7,2.6,8.9,5.8,12,10.2c1.1,1.6,2,1.5,3.2,0.4c8.1-7.1,16.2-14.2,23.3-22.3
		c6.2-7.1,11.8-14.5,15.6-23.1c2.3-5.2,3.9-10.5,4.6-16.1c0.1-1-0.1-1.7-1-2.4c-4.4-3.4-9.5-5.4-14.9-6.5c-3.7-0.7-4.7-0.2-6.6,3
		C643.8,255.9,643.5,256.3,643.2,256.7z M538.8,327.8c-1.6-2.2-3.7-2-6.1-1.6c-8.4,1.3-16.7,2.5-25.2,2.6
		c-6.3,0.1-12.5,0.1-18.8,0.1c-0.7,0-1.4-0.1-2.1,0c-3.9,0.1-4.2-0.7-2.7,3.6c3.2,8.9,4.4,18,3.7,27.4c-0.2,2.4,0,3,2.6,3
		c12.8,0,25.5-0.4,38.2-1.9c10-1.2,19.8-3,29.6-5.4c1.1-0.3,1.4-1,1.3-1.9c-0.5-3.1-1.2-6.1-2.9-9c-3.9-6.6-9.6-11.3-15.3-16.1
		C540.4,328,539.6,327.7,538.8,327.8z M343.5,308.3c-0.7-0.2-1.4-0.4-2.1-0.6c-12.8-3.2-25.4-6.7-37.7-11.4
		c-4.1-1.6-8.1-3.2-12.1-4.9c-0.7-1.3-2.2-1.4-3.2-2.3c-1.1-1-2.2-0.7-3.2,0c-5.8,3.8-10.1,8.8-12.5,15.4c-0.3,0.7-0.3,1.4,0.2,2
		c0.9,1.1,1.7,2.3,2.8,3.2c6.9,6,14.8,10.3,23.1,13.9c13.2,5.6,27.2,9,41,12.8c1.9,0.5,2.6-0.1,2.7-1.8c0.5-4.3,2.3-8,4.1-11.8
		c2-4.2,4.7-8,7.3-12C350.3,309.9,346.9,309.1,343.5,308.3z M547.7,323.5c-2.7,0.5-5.5,1.1-8.8,1.7c0.9,0.7,1.3,1.1,1.7,1.4
		c4.9,3.4,9.4,7.2,13.2,11.8c3.6,4.4,6.5,9.2,6.8,15.1c0.1,1.6,0.9,1.6,2,1.5c4.5-0.4,9-0.7,13.4-1.7c10.6-2.4,20.4-6.7,29.2-13.2
		c5.1-3.8,9.6-8.2,13.7-13.1c0.8-1,1.2-1.8,0.1-3.1c-6.7-8.2-15.4-13-25.4-15.9c-1.2-0.3-2.2-0.2-3,0.7c-0.5,0.1-1,0-1.4,0.2
		c-6.8,3.7-14,6.4-21.3,8.9C561.4,320.2,554.6,321.8,547.7,323.5z"/>
	<path d="M655.6,127.4c-0.4-0.5-0.9-0.9-1.3-1.4c4.1,0,7.4-2.1,10.4-4.5c2.6-2.1,4.5-4.7,6.2-7.5c2-3.2,4.2-6.4,6-9.7
		c6.7-11.9,17.2-18.3,30.2-21.3c7.2-1.7,14.6-2.5,22-2.4c7.8,0.1,15.1-1.6,22.4-4.1c8.3-2.9,16.5-6.2,25.1-8.5c3.8-1,7.7-2,11.7-1.5
		c5.4,0.6,7.2,3.3,6,8.5c-1.2,5-3.6,9.5-6.3,13.8c-11.8,19-27.6,34.2-45.8,46.9c-21.3,14.8-44.8,24.2-70.4,28.3
		c-0.5-0.4-0.4-0.9-0.4-1.4c8.2-1.2,16.2-3.1,24-5.6c24.8-7.8,46.8-20.7,65.9-38.3c10.6-9.8,20.1-20.7,27.2-33.5
		c2.4-4.3,4.9-8.6,4.5-13.8c0.2-0.8-0.1-1.4-0.8-1.7c-0.6-1.5-2.1-1.7-3.3-1.8c-3.6-0.5-7.2,0-10.6,1.2c-7.1,1.6-13.9,4.3-20.8,6.8
		c-3.9,1.5-8.1,2.3-11.8,4.2c-1.7-0.2-3.2,0.4-4.7,0.9c-7,1.2-14.2,0.6-21.2,1.5c-4.5,0.5-9.1,0.9-13.4,2.3c-1.9,0.4-4,0.2-5.3,2
		c-0.7,0-1.4,0-2.1,0.3c-8.5,3.5-15.4,8.7-19.8,16.9c-0.9,0.5-1.2,1.4-1.7,2.2c-2.4,3.7-4.6,7.4-7.1,11
		C666.6,122.5,661.9,126.2,655.6,127.4z"/>
	<path class="st1" d="M447.1,19.1c0.6-0.3,1.2-0.6,1.8-0.9c0.6,3.9,3.9,5,6.8,6.6c0.1,1.2,1.9,1.5,1.5,2.9c0.2,1.9-0.4,3.7-1.1,5.5
		c-2.1,5.5-6.2,8.4-11.9,9.3c-1.9,0.2-3.8-0.3-5.5-1c-4.3-1.8-7.7-6.6-3.6-11.9c2.3-2.9,5-5.2,7.7-7.6C444.3,21,445.7,20,447.1,19.1
		z"/>
	<path d="M457.2,27.7c0.4-1.4-1.3-1.8-1.5-2.9c6.8,2.6,9.4,6.8,8.8,13.9c-0.7,6.8-3.4,13-6.3,19.1c-0.6,1.2-1.6,2.2-1.4,3.7
		c-0.7,0-1.3,0.1-2,0.1c3.1-6.3,6.2-12.6,7.8-19.6c0.7-3.3,1.1-6.6-0.2-9.8C461.4,29.9,460.1,27.9,457.2,27.7z"/>
	<path d="M548.3,359.2c1-0.7,2.2-0.3,3.2-0.5c-5.8,5-12.4,9.1-19,12.9c-13.5,7.7-27.9,13.2-43.1,16.7c-0.1-0.4-0.2-0.9-0.3-1.3
		c1.5-0.4,3.1-0.8,4.6-1.2c17.9-4.8,34.6-12.2,49.9-22.8C545.2,361.9,547.2,361.1,548.3,359.2z"/>
	<path class="st2" d="M275.1,311c6.8,6.1,14.9,10.3,23.2,14c-0.4,1-1.5,1.4-2.3,2c-13.5,10.9-28.7,18.6-45.3,23.3
		c-7.2,2-14.6,3.3-22.1,3.9c-6.7,0.5-13.3,0.6-20,0.2c-5.8-0.3-11.6-1.4-17.3-2.7c0.7-5.6-4.5-13-10.7-13.5
		c-4.9-0.4-9.1,1.1-13.1,3.8c-0.7,0.5-1.3,1.2-2.2,1.3c-0.3-0.2-0.5-0.4-0.8-0.5c-8.1-3.1-16-6.6-23.6-10.7
		c-12.4-6.7-24.4-14.1-35.6-22.7c-10-7.7-19.6-15.8-28.6-24.6c-7.1-6.9-13.8-14.2-20.3-21.7c-6.5-7.5-12.6-15.2-18.6-23.1
		c-5.3-7-10.3-14.2-15.1-21.6C16.8,209.8,11.2,201,6,192.1c-1.3-2.2-2.1-5-4.4-6.5c-0.3-2.1-0.2-4.1,0.6-6.1
		c0.2-0.2,0.5-0.3,0.7-0.5c0,0,0,0,0,0c4.7-2.7,9.9-4.2,15.3-4.8c3,7.2,8.9,10.9,16.2,12.2c6.9,1.3,15.2-1.4,14.5-10.9
		c3.2,0.3,6.2,1.2,9.3,1.9c0.1,0,0.2,0,0.3,0.1c0.1,6.6,0.1,13.1,0.9,19.7c0.9,6.6,4.7,10.6,11.2,11.9c7.3,1.4,14,0,20-4.4
		c3.1-2.2,4.7-5.7,6.9-8.6c1.2-0.2,1.9,0.7,2.7,1.3c2.6,1.6,5.1,3.3,7.7,5c0,0.1,0,0.3,0,0.4c-1.7,1.6-2.8,3.7-3.9,5.6
		c-3.8,6.7-7.1,13.5-6.6,21.5c0.2,4.2,2.1,7.4,6.1,9.2c2.1,0.9,4.4,1.4,6.7,1.4c6.8,0.1,13.3-1.5,19.7-3.8c4.1-1.5,7.8-3.8,11.9-5.3
		c3.1,2,5.5,5,8.3,7.4c0,0.2-0.1,0.5-0.1,0.7c-5.7,6.6-10.9,13.6-13.9,22c-3.3,8.9,0.6,16.2,9.8,18.6c4.8,1.2,9.7,1.3,14.6,0.5
		c5.8-1,11.4-2.5,16.1-6.4c1.2-1.1,2.2-2.5,3.9-3.1c2.4,2.4,4.9,4.8,6.9,7.6c0,0.2,0,0.4,0,0.5c-5,6.5-9.7,13.1-12.1,21.1
		c-2.2,7.2,0,11.4,7.2,13.6c7,2.1,14,1.4,20.8-0.9c4.4-1.5,8.8-3.1,12.2-6.6c0.3,0,0.6-0.1,0.8-0.1c1.6,1.8,3.7,2.7,5.7,3.8
		c13.6,7.1,27.8,8.4,42.6,4.6C268,313.7,271.8,313.2,275.1,311z M157.7,324.6c6.7,0.5,8.5-4.2,7.8-10.3c-0.8-7.4-3.7-13.9-9-19.2
		c-1.9-1.9-4.1-3.1-7-3.1c-7.7-0.1-15.4,6-17.5,14c-1.5,5.6,0,9.6,4.8,12.7C142.7,322.4,149.2,324.3,157.7,324.6z M108.1,252.9
		c-4-0.1-7.8,1-11.3,3.2c-4.8,3.1-6.5,7.5-4.8,12.9c2.5,7.9,8.1,12.5,16.1,13.8c10.1,1.6,18-7.9,16.6-16.4
		C123.4,258.1,116.8,252.8,108.1,252.9z M219.6,345c0.5,0,1.6,0.1,2.7,0c4.5-0.4,8.6-3.9,9.5-8.1c1-4.6-0.7-8.8-4.8-10.6
		c-6.8-3.1-13.8-3-20.3,0.7c-6.4,3.7-6.4,11.4,0.1,14.9C210.5,343.9,214.6,345.3,219.6,345z M82.9,251c8,0,11-4.8,8.1-11.3
		c-1.6-3.6-4.1-6.4-7.1-8.9c-7.1-6-14.6-2.5-18.5,2.2c-2.5,3.1-2.6,6.3-0.1,9.3C70.2,247.9,76.7,250.2,82.9,251z M39.7,202.7
		c-7.3-0.1-9.4,1.5-9.9,6.4c-0.2,1.9,0.4,3.8,1.2,5.5c2.7,6,8.9,9.4,16.6,9.1c3.8-0.2,6.8-1.9,8.2-5.5c1.3-3.5,0.8-6.9-2-9.7
		C49.5,204.4,44,203,39.7,202.7z M67.9,251.5c-3.3,0-5.7,0.9-7.6,2.8c-2.2,2.2-2.2,3.8,0.1,5.8c4.1,3.6,9,5.5,14.4,6.1
		c2.5,0.3,3.6-0.9,3.9-3.4C79.3,256.9,74.2,251.5,67.9,251.5z M106.5,292c-2.2,0.1-5,0.7-7.6,2c-2,1-2.5,2.6-1,4
		c4.3,3.9,9.3,6.7,15.3,6.5c2.9-0.1,4.6-3,3.6-5.7C115.5,294.8,111.3,291.9,106.5,292z"/>
	<path class="st0" d="M488.1,436.1c0-0.5,0-0.9,0-1.4c0-0.3-0.1-0.6-0.1-0.9c0-0.8-0.1-1.6-0.1-2.4c0-0.1,0.1-0.1,0.1-0.2
		c0-0.1-0.1-0.2-0.1-0.4c0-0.6-0.1-1.2-0.1-1.8c0.6-0.6,0.4-1.3,0.3-2c-0.4-3.7-1.2-7.3-2.3-10.9c-2.2-7.3-5.7-13.9-11.4-19.1
		c-1.7-1.6-3.7-2.6-6-3.1c-3.5-0.8-6.7,0.2-7.9,2.6l0,0c-0.2,0.2-0.5,0.3-0.7,0.5c-1.9,2.3-2.6,5.1-3.6,7.8
		c-1.5,4.1-1.4,8.5-1.8,12.8c-0.3,3.8-0.1,7.7,0.9,11.4c-0.7,1-1.3,0.1-1.8-0.2c-12.3-5.9-24.6-4-34.9,5.1
		c-6.3,5.6-10.3,12.6-13.8,20c-3.6,7.7-7.1,15.4-12.4,22.2c-7.5,9.6-17.3,13.2-29.2,11.3c-1.4-0.2-2.8-0.4-4.2-0.6
		c-1.8-1-3.6-2-5.3-3.2c-7.1-5.2-11.9-12.2-14.7-20.5c-2.1-6.2-3.1-12.5-3.6-19c-0.5-5.8-0.5-11.6,0-17.3c0.2-2.2-0.4-2.4-2.1-1.9
		c-1.2,0.4-2.2,0.3-3.2-0.4c-2.1-1.6-3.7-3.4-4.7-6.1c-1.2-3.3-1.4-6.8-2.6-10c2.3-8.6,6.9-16.1,12.5-22.9c0.5-0.6,1.3-1,1.3-1.9
		c0.1,0,0.1,0,0.2-0.1c0,0,0-0.1,0-0.1c-0.1,0.1-0.1,0.1-0.2,0.2c-3,1.5-4.8,4.3-6.7,6.8c-2.8,3.7-4.9,7.9-6.7,12.2
		c-0.5-0.4-0.5-1-0.4-1.5c0.3-3.1,0.5-6.1,1-9.2c1.3-8.2,3.9-15.9,7.8-23.2c1.5-2.8,3.7-5.3,4.6-8.5c3.8-4.3,7.9-8.1,12.8-11
		c0.3-0.2,0.7-0.3,1-0.5c0,0,0,0,0,0c0.2-0.2,0.3-0.3,0.5-0.5c0,0,0.1-0.1,0.1-0.1s0.1,0.1,0.1,0.1c2.6-0.6,4.9-2,7.4-2.9
		c5.6-2.1,11.1-4.3,17.2-4.8c-0.3,2.2-0.8,4.4-0.9,6.6c-0.1,3.2,1.5,5.3,4.1,5.9c8.2,1.8,18.3-5.2,15.2-15c0.9-0.1,1.7-0.2,2.6-0.2
		c10.2-0.2,20.4,0.9,30.4,2.8c16.1,3.1,29.8,10.6,41.1,22.3c10.8,11.2,18.4,24.4,23.5,39c5,14.5,7.1,29.4,6.6,44.7c0,0,0,0,0,0
		c-0.8,1.2-0.6,2.5-0.2,3.7c-1.4,9.9-4.9,19.2-10.1,27.7c-0.4,0.6-0.5,1.6-1.6,1.3c-1.3-8.3-4.3-16.1-8-23.6
		c-0.9-1.8-1.1-2.6,1.1-3.5c5.4-2.4,7.8-7.2,8.8-12.8c0-0.1,0.1-0.1,0.1-0.1c0-0.1-0.1-0.2-0.1-0.4c0.1-0.8,0.1-1.6,0.2-2.4
		C488.1,436.4,488.1,436.2,488.1,436.1z M388.4,400.3L388.4,400.3c0-1-0.7-1.7-1.3-2.4c-3.8-4.4-8.6-5.5-14-3.9
		c-8.1,2.4-12.8,8.6-16.5,15.8c-0.3,0.6-0.2,1.4-0.2,2.1l0,0c-0.5,0.2-0.4,0.6-0.5,1c-3.5,8.1-5.6,16.5-6.5,25.3
		c-0.4,3.5-0.6,7.1,0.3,10.6c0,0.4,0,0.9,0,1.3c0,0.1-0.1,0.1-0.1,0.2c0,0.1,0.1,0.3,0.1,0.4c0,0.5,0,0.9,0,1.4
		c-0.4,0.4-0.3,0.7,0.1,1c0.3,3.5,0.8,6.9,1.9,10.3c3.6,10.9,14.2,17.3,25.4,15.1c9.8-1.9,15.1-8.5,17.6-17.7
		c2.3-8.3,2.4-16.8,1.9-25.3c0-0.2-0.1-0.3-0.1-0.5c0-0.6-0.1-1.3-0.1-1.9c0-0.1,0.1-0.1,0.1-0.2c0-0.1-0.1-0.2-0.2-0.4
		c0-0.3,0-0.6,0-0.9c0.6-0.7,0.5-1.2-0.3-1.5c0-0.3,0-0.5-0.1-0.8c0.5-0.7,0.4-1.5,0.3-2.3c-0.3-2.4-0.6-4.8-0.9-7.2
		c-1-6.4-2.9-12.5-6-18.2C388.9,401,388.7,400.6,388.4,400.3z M400.8,369.4c2.4,0.1,4.9-0.6,7.1-1.9c1.8-1.1,3.3-2.5,3.5-4.8
		c0.2-2.6,0-5.1-1.2-7.4c-1.4-2.9-3.3-5.5-6.9-5.9c-3.8-0.5-6.3,1.6-8.3,4.5c-1.1,1.5-1.8,3.3-2.1,5
		C392,364.9,393.2,369.4,400.8,369.4z M443.4,363.7c3.8-0.1,7.4-1.1,10.2-3.9c1.8-1.8,1.7-3.7-0.2-5.4c-1.3-1.2-2.7-2.2-4.2-3.2
		c-3.9-2.6-8-5-12.9-4.8c-4.1,0.1-5.7,2.3-4.6,6.3c1,3.4,3,6.1,5.5,8.5C438.9,362.8,440.8,363.9,443.4,363.7z M456.2,383
		c-0.3-3.5-0.2-7.5-2.3-11.1c-1.6-2.8-4.4-2.9-7.1-2.6c-2.2,0.2-2.9,2.1-3.2,3.9c-1.2,6.4-0.5,12.6,2.4,18.5
		c1.6,3.1,5.3,3.5,7.7,0.9C456,390,456.2,386.7,456.2,383z M416.1,388.5c0-1.8-0.3-3.5-0.8-5.1c-0.9-2.9-2.3-5.4-4.9-7
		c-3.3-2-8.4-1.7-8.8,3.8c-0.1,1.8,0,3.5,0.3,5.2c0.6,3.5,1.5,7,3.7,9.9c2.5,3.2,6.8,2.9,8.9-0.6
		C415.5,392.7,416.1,390.7,416.1,388.5z M428,393.6c0,2.6,3.2,6.9,5.7,7.6c1.2,0.3,2.2,0.2,3.1-1.1c1.4-2.1,2.2-4.4,2.6-6.8
		c0.4-2.3-0.9-4.6-2.6-5.4C433.2,386.3,428,389.7,428,393.6z M423.2,408c0-4.3-1.7-5.3-4.9-3.8c-2.6,1.2-4.5,3.3-6,5.6
		c-1.7,2.5-1.2,4.9,1,6.5c2.4,1.7,5.2,1.4,7-0.9C422.1,413,423.1,410.3,423.2,408z M449.6,417.3c0-3.4-1.1-5.6-3.2-6.5
		c-2.1-0.9-4.5-0.3-6,1.4c-1.7,2-1.8,5.1-0.2,7.5c1.5,2.2,4.6,3.6,6.5,2.9C449.1,421.7,449.7,419.6,449.6,417.3z M434.3,377.7
		c0-3.8-2.9-7-6.3-6.9c-3,0.1-4.7,2.2-4.7,5.7c0,3.6,2.6,6.2,6.1,6.1C432.5,382.5,434.3,380.7,434.3,377.7z"/>
	<path class="st3" d="M191.2,351.7c5.7,1.3,11.5,2.3,17.3,2.7c6.6,0.4,13.3,0.4,20-0.2c7.5-0.6,14.9-1.9,22.1-3.9
		c16.7-4.7,31.8-12.3,45.3-23.3c0.8-0.6,1.8-1,2.3-2c5.7,2.1,11.4,4.1,17.2,6.2c0.6,2.7,1.1,5.4,1.7,8.1c0.3,1.3,0.2,2.1-1,3.1
		c-14,11.5-29.5,20.4-46,27.8c-12.8,5.7-26,10.1-39.7,13.1c-12.1,2.7-24.3,3.9-36.6,3.2c-6-0.3-11.6-2.5-17-5
		c-10.6-5-20.2-11.6-29.3-18.9c-8.7-7-17.1-14.4-25.2-22.1c-4.9-4.8-9.9-9.4-14.6-14.4c-10-10.4-19.8-21-29.3-31.9
		c-11.5-13.3-22.8-26.7-33.7-40.6c-11.6-14.7-23.2-29.3-33.5-44.9c-4.3-6.5-8-13.3-9.6-21.1c-0.1-0.6-0.1-1.3-0.1-1.9
		c2.4,1.6,3.1,4.3,4.4,6.5c5.2,9,10.8,17.7,16.5,26.4c4.8,7.4,9.8,14.6,15.1,21.6c6,7.9,12.1,15.6,18.6,23.1
		c6.5,7.5,13.2,14.8,20.3,21.7c9.1,8.7,18.6,16.9,28.6,24.6c11.2,8.6,23.2,16,35.6,22.7c7.6,4.1,15.5,7.7,23.6,10.7
		c0.3,0.1,0.6,0.3,0.8,0.5c-0.1,0.2-0.2,0.5-0.3,0.7c-3,4.5-2.4,6.8,2.6,8.9c5.5,2.3,11.2,2.6,17.1,2
		C187.2,354.6,189.5,353.8,191.2,351.7z"/>
	<path class="st3" d="M322.6,408.5c1.2,3.2,1.5,6.7,2.6,10c0.9,2.6,2.6,4.5,4.7,6.1c0.9,0.7,2,0.8,3.2,0.4c1.7-0.5,2.3-0.3,2.1,1.9
		c-0.5,5.8-0.4,11.5,0,17.3c0.5,6.5,1.5,12.8,3.6,19c2.9,8.3,7.6,15.3,14.7,20.5c1.6,1.2,3.5,2.1,5.3,3.2c3,9.2,9.6,14.9,18.2,18.5
		c1.7,0.7,2.9,1.7,3.7,3.4c1.9,4.1,4.6,7.8,7.5,11.2c0.7,0.8,1.3,1.8,2,2.7c-4.4-0.5-8.3-2.5-12.4-4.1c-13-5.2-24.8-12.4-34.4-22.8
		c-8.8-9.5-14.2-20.7-17.2-33.2c-1.5-6.2,0.5-11.9,2.3-17.6c0.5-1.4,1.1-2.7,1.5-4.2c-2,1.9-2.7,4.6-3.6,7.1c-1,2.6-1.6,5.3-2.1,8
		c-2-3.2-3-6.8-4.1-10.2c-4-12.6-1.8-24.8,2.1-37C322.5,408.5,322.6,408.5,322.6,408.5z"/>
	<path class="st4" d="M428,324c4.9,0.5,9.7,1.1,14.6,1.6c5.6,0.6,11.1,1.3,16.7,1.7c5.7,0.4,11.5,1.1,17.3,1.1
		c0.4,0,0.7,0.3,1.1,0.4c0.9,3.3,2.7,6.2,3.1,9.6c0.3,2.8,1.1,5.8-1.2,8.1c-1.6,1.5-3.7,2.3-5.9,2.8c-4.5,1.1-9.1,0.9-13.7,0.9
		c-3.4-1.1-6-3.7-9.1-5.4c-6.4-3.5-13.2-5.7-20.1-7.5c-0.3-0.1-0.5-0.3-0.8-0.4C428.2,332.7,428.7,328.3,428,324z M434.2,329.8
		c7.7,6.2,32.8,7.3,41.7,1.9C461.8,332.7,448,332.1,434.2,329.8z M433,329.5c-0.1,0-0.2-0.1-0.3-0.1c0,0.1,0,0.1,0.1,0.1
		C432.8,329.6,432.9,329.6,433,329.5z"/>
	<path class="st4" d="M361.2,312.5c4.4,0.4,8.5,1.6,12.8,2.4c11.9,2.3,23.8,4.6,35.8,6.2c0.4,0,0.7,0.3,1.1,0.4
		c0,1.1,0.1,2.2,0.3,3.3c0.6,3,1.2,6.1,0.1,9.1c-1.8,0.9-3.6,0.1-5.3-0.1c-4.6-0.6-9.1,0-13.7,0.4c-4.5,0.4-8.9,0.6-13.3,1.6
		c-1.1-1-2.6-1.2-3.9-1.6c-4.5-1.4-8.8-3.1-12.5-6.1c-4.6-3.7-5.5-5.2-4.3-10C358.9,316.1,360.5,314.5,361.2,312.5z M365.3,318.2
		c12.7,8.1,26.7,9.2,41.1,7.5C392.5,324.6,378.8,322.4,365.3,318.2z"/>
	<path class="st2" d="M548.3,359.2c-1.1,1.9-3.1,2.7-4.8,3.8c-15.2,10.6-32,18-49.9,22.8c-1.5,0.4-3.1,0.8-4.6,1.2
		c-2.5-3.3-3.8-7.3-6.2-10.6c-0.9-1.2-1.6-2.5-2.4-3.8c1.3,0.1,2.5-0.2,3.8-0.5c5.2-1,10.3-2.5,15.4-4c3.4-1,6.9-2.2,9.9-4.3
		c6.3-0.4,12.5-0.8,18.7-1.5C535,361.6,541.6,360.5,548.3,359.2z"/>
	<path class="st2" d="M316.9,331.7c8.6,2.3,17.1,4.6,25.7,6.8c4.9,1.3,9.8,2.5,14.7,3.8c0.1,1-0.8,1.1-1.4,1.3
		c-14.5,7.1-25.3,17.9-32.1,32.6c-0.2,0.5-0.5,1-0.8,1.5c-0.1,0.1-0.3,0.1-0.7,0.2C320.4,362.4,321,346.7,316.9,331.7z"/>
	<path class="st5" d="M361.2,312.5c-0.8,2-2.4,3.6-2.9,5.7c-1.3,4.8-0.3,6.3,4.3,10c3.7,2.9,8,4.7,12.5,6.1c1.3,0.4,2.8,0.6,3.9,1.6
		c-6.6,1.3-12.9,3.3-19.1,5.8c-4.7-1.3-9.4-2.6-14.1-3.8c-1.6-0.4-2.2-0.9-1.8-2.9c1.7-8.7,6.1-16,11.2-23c0.5-0.7,1-0.9,1.8-0.6
		C358.3,311.8,359.8,312.1,361.2,312.5z"/>
	<path class="st6" d="M48.8,175.5c0.7,9.5-7.7,12.2-14.5,10.9c-7.3-1.4-13.1-5-16.2-12.2c-0.5-1.3-0.5-2.7-0.5-4
		c9.9-1.4,19.7-0.6,29.6,0.6C47.7,172.3,48.3,173.9,48.8,175.5z"/>
	<path class="st3" d="M497.7,446.6c0.5-15.3-1.5-30.2-6.6-44.7c-5.1-14.6-12.7-27.8-23.5-39c-11.3-11.7-25-19.2-41.1-22.3
		c-10.1-1.9-20.2-3-30.4-2.8c-0.9,0-1.7,0.1-2.6,0.2c-0.1-0.1-0.2-0.1-0.4-0.2c-0.2-0.9-1.4-1.3-1.3-2.4c14.8-1.1,29.3,0.5,43.6,4.6
		c19.5,5.7,33.9,18.1,44.7,34.8c12.6,19.4,18.4,40.8,18.4,63.9C498.5,441.4,498.6,444.1,497.7,446.6z"/>
	<path class="st5" d="M460,350.3c4.6,0,9.2,0.1,13.7-0.9c2.2-0.5,4.4-1.3,5.9-2.8c2.3-2.3,1.5-5.3,1.2-8.1c-0.4-3.4-2.2-6.4-3.1-9.6
		c2.7-0.6,3.8,0.8,4.6,3.3c2.8,8.5,4.4,17.1,4,26.1c-0.2,3.9-0.2,3.9-4.2,4.1c-3.3,0.1-6.5-0.6-9.7-0.5c-2.1-0.3-2.7-2.5-4.1-3.6
		c-2.7-2.3-5.1-4.8-8-6.9C460.1,351,460.1,350.6,460,350.3z"/>
	<path class="st0" d="M275.1,311c-3.2,2.2-7,2.7-10.7,3.7c-14.7,3.8-29,2.5-42.6-4.6c-2-1.1-4.1-2-5.7-3.8c0.8-1.1,2.3-1.5,2.9-2.8
		c1.1-0.4,1.8,0.3,2.6,0.8c15.9,9.3,32.5,9.9,49.8,4.7c0.2-0.1,0.4-0.2,0.6-0.3C273.5,308.8,274.1,310.2,275.1,311z"/>
	<path class="st7" d="M58.3,172.7c7.3,1.4,14.2,4.2,20.9,7.3c6,2.7,11.6,6,17.3,9.3c0.8,0.5,1.7,0.9,2.3,1.7c0,1.3-0.7,2.5-1,3.7
		c-0.1,0.2-0.2,0.3-0.2,0.5l-0.2,0c-6.2-3.4-12.3-7.1-18.7-10.2c-6.5-3.1-13.2-5.7-20.2-7.5c-0.1,0-0.2,0-0.3-0.1
		C58.2,175.9,58.3,174.3,58.3,172.7z"/>
	<path class="st7" d="M107.9,202.8c0-0.1,0-0.3,0-0.4c1.2-0.7,1.5-2.3,2.8-2.9c2.4,0.3,3.9,2.3,5.7,3.6c8.8,6.5,16.8,13.9,25,21.2
		c1.4,1.2,3,2.3,3.7,4.2c-0.8,1-1.9,1.7-3.1,2.1c-1-0.3-1.8-0.9-2.6-1.7c-6.9-6.6-14.1-12.9-21.7-18.8
		C114.5,207.6,111.5,204.8,107.9,202.8z"/>
	<path class="st3" d="M336,360.3c-0.9,3.2-3.1,5.6-4.6,8.5c-3.9,7.3-6.5,15-7.8,23.2c-0.5,3-0.7,6.1-1,9.2c-0.1,0.5-0.1,1.1,0.4,1.5
		c-3.1,7.5-5,15.3-5.9,23.4c-0.8-5.3-0.7-10.5-0.4-15.9c0.5-7,1.6-13.8,3.4-20.5c3-10.6,7.8-20.2,14.9-28.7
		C335.3,360.7,335.7,360.5,336,360.3z"/>
	<path class="st7" d="M149.8,239.5c0-0.2,0.1-0.5,0.1-0.7c1-1,2-2,3-3c2,0.8,2.8,2.8,4.2,4.1c5.7,5.7,11.4,11.3,16.8,17.3
		c2.8,3.1,5.5,6.1,8.3,9.2c0.4,0.4,0.7,0.9,0.7,1.5c-0.5,1-1.3,1.7-2.3,2.3c-0.9,0-1.5-0.5-2-1.2c-2.2-3.2-5.2-5.7-7.8-8.6
		c-6-6.6-12.4-12.9-18.7-19.3C151.4,240.4,150.8,239.5,149.8,239.5z"/>
	<path class="st0" d="M509.5,363.8c-3,2.1-6.5,3.3-9.9,4.3c-5.1,1.5-10.2,3-15.4,4c-1.3,0.2-2.5,0.5-3.8,0.5
		c-2.4-3.1-4.7-6.3-7.1-9.4C485.4,364,497.5,364.3,509.5,363.8z"/>
	<path class="st7" d="M219,303.4c-0.6,1.4-2.1,1.8-2.9,2.8c-0.3,0-0.6,0.1-0.8,0.1c-0.4-0.5-0.8-1-1.3-1.4c-3-2.2-5.8-4.6-8.5-7.2
		c-5.6-5.5-10.9-11.2-16.1-17.1c-0.6-0.7-1.1-1.6-2.3-1.6c0-0.2,0-0.4,0-0.5c1.3-0.6,1.8-2.1,3-2.8c1.5,0.3,2.2,1.5,3.1,2.5
		c4.6,5.2,9.2,10.3,14.2,15.1c3.3,3.2,6.8,6.2,10.7,8.6C218.6,302.4,219,302.7,219,303.4z"/>
	<path class="st5" d="M428,324c0.6,4.3,0.2,8.7,1.8,12.9c-3.2,0-6.2-1.6-9.5-1.5c-0.2-3.6,0.4-7.3-0.5-10.9
		c-0.3-1.2,0.5-1.6,1.5-1.5C423.7,323.3,425.9,323.7,428,324z"/>
	<path class="st5" d="M411.3,334c1.1-3,0.6-6.1-0.1-9.1c-0.2-1.1-0.3-2.2-0.3-3.3c0.9,0.1,1.7,0.2,2.6,0.3c5.3,1.1,5.3,1.1,5.5,6.6
		c0.1,2.1,0,4.3,0,6.4C416.4,334.4,413.8,334.8,411.3,334z"/>
	<path class="st0" d="M110.7,199.5c-1.3,0.6-1.7,2.2-2.8,2.9c-2.6-1.7-5.1-3.4-7.7-5c-0.8-0.5-1.6-1.4-2.7-1.3
		c0-0.3-0.1-0.6-0.1-0.9c0,0,0.2,0,0.1,0c0.1-0.2,0.2-0.3,0.2-0.5c0.3-1.3,1-2.4,1-3.7c4.4,2,8.1,5,11.8,7.8
		C110.8,198.9,110.7,199.2,110.7,199.5z"/>
	<path class="st0" d="M152.9,235.7c-1,1-2,2-3,3c-2.8-2.4-5.1-5.3-8.3-7.4c0.1-0.3,0.2-0.6,0.3-0.9c1.3-0.4,2.3-1.1,3.1-2.1
		C148.4,230.1,150.7,232.9,152.9,235.7z"/>
	<path class="st0" d="M17.7,170.1c0,1.4-0.1,2.7,0.5,4c-5.4,0.6-10.6,2-15.3,4.8c-0.2-2.1,1.4-3,2.6-4.1
		C9,171.9,13.3,170.8,17.7,170.1z"/>
	<path class="st0" d="M58.3,172.7c-0.1,1.6-0.2,3.2-0.2,4.8c-3.1-0.8-6.1-1.6-9.3-1.9c-0.5-1.6-1-3.2-1.6-4.8
		C51,170.9,54.8,171.3,58.3,172.7z"/>
	<path class="st0" d="M190,275.8c-1.2,0.7-1.6,2.2-3,2.8c-1.9-2.9-4.5-5.2-6.9-7.6c0.1-0.3,0.2-0.6,0.3-0.9c0.9-0.6,1.7-1.3,2.3-2.3
		c0.5-0.2,0.9,0,1.3,0.4c1.9,2.1,3.8,4.2,5.7,6.3C190.1,274.9,190.1,275.3,190,275.8z"/>
	<path class="st7" d="M391.8,335.5c-0.1,1.1,1.2,1.4,1.3,2.4c-2.6,0.3-5.3,0.7-7.9,0.8c-3.2,0.1-6.2,1.4-9.3,1c0-0.6,0-1.2,0.1-1.8
		c1.6-1.6,3.8-1.4,5.7-1.6C385,335.8,388.3,334.6,391.8,335.5z"/>
	<path class="st3" d="M375.9,337.9c0,0.6,0,1.2-0.1,1.8c-0.3,0.3-0.5,0.7-0.8,1c-6.1,0.4-11.6,2.7-17.2,4.8
		c-2.5,0.9-4.8,2.3-7.4,2.9c4.9-3.5,10.4-5.7,15.9-7.6C369.5,339.6,372.8,338.8,375.9,337.9z"/>
	<path class="st3" d="M497.6,450.3c-0.4-1.3-0.6-2.5,0.2-3.7C497.7,447.9,497.6,449.1,497.6,450.3z"/>
	<path class="st8" d="M349.8,348.8c-0.3,0.2-0.7,0.3-1,0.5C349.1,349.1,349.5,348.9,349.8,348.8z"/>
	<path class="st8" d="M350.3,348.3c-0.2,0.2-0.3,0.3-0.5,0.5C349.9,348.7,350.1,348.5,350.3,348.3z"/>
	<path class="st0" d="M2.9,178.9c-0.2,0.2-0.5,0.3-0.7,0.5C2.3,179.1,2.4,178.7,2.9,178.9z"/>
	<path d="M390.3,522.5c0.2,0,0.3,0,0.5,0C390.7,522.8,390.5,522.9,390.3,522.5z"/>
	<path class="st9" d="M486.6,509.4c-0.6,6.1-2.3,12-5.1,17.5c-2.2-5.3-4-10.7-7.6-15.4c-5.1-6.7-11.5-11.7-19.1-15.3
		c-6.4-3-13.3-3.4-20.2-3.7c-7-0.3-13.9-0.2-20.9-1c-8.9-1-16.5-4.2-22-11.5c0.4-2.4,2.4-3.6,3.6-5.4c4.6-6.6,7.8-14,11.2-21.1
		c0.4-0.8,0.6-1.8,1.3-2.5c0.5-0.2,0.5-0.6,0.6-1c0,0,0,0,0,0c0.4-0.2,0.5-0.6,0.5-1c0,0,0,0,0,0c0.8,0,1-0.7,1.4-1.2
		c1.9-2.9,4.2-5.4,6.7-7.7c5-4.6,10.8-8,17.6-8.8c11.5-1.4,20.7,3.8,28.5,11.5c5.9,5.8,10.4,12.8,13.8,20.3c5,11.2,8.1,22.8,9.1,35
		C486.3,501.9,486,505.7,486.6,509.4z M448.5,445.2c-1-0.1-1.6,0.4-2,1.3c-1.3,2.6-0.2,7.8,2,9.7c2.1,1.8,4.4,1.1,4.9-1.6
		c0.6-3.3-0.2-6.2-2.7-8.6C450,445.5,449.4,445.1,448.5,445.2z"/>
	<path class="st10" d="M391.7,480c5.5,7.4,13.1,10.6,22,11.5c6.9,0.8,13.9,0.7,20.9,1c6.8,0.3,13.8,0.7,20.2,3.7
		c7.6,3.5,14,8.5,19.1,15.3c3.6,4.7,5.4,10.1,7.6,15.4c-0.5,1.4-1.1,1.5-2,0.2c-7.3-11-18.2-16.1-30.7-18.8
		c-6.4-1.4-12.9-1.8-19.4-1.4c-5,0.3-10,1.3-15,1.6c-5.8,0.4-11.7,0.4-17.6-0.1c-5.2-0.4-10.3-1.4-15.3-3.1
		c-8.8-2.9-16.1-7.6-20.4-16.6c1.5,0.1,2.7,0.2,3.9,0.3c9.9,1.4,18.2-1.8,25.4-8.5C390.8,480.3,391.3,480.2,391.7,480z"/>
	<path class="st9" d="M400.9,510.1c1.9,0,3.8,0.2,5.7-0.1c3.4-0.5,5.5,0.9,7.6,3.5c7.7,9.5,17.1,16.9,28.3,22.1
		c2.4,1.1,3.4,0.6,4.2-1.9c1.3-4.5,1.4-9.2,1.9-13.8c0.3-2.8,0.4-5.5,0.5-8.3c0-1.4,0.7-1.6,1.8-1.4c0.2,0,0.3,0.1,0.5,0.1
		c4.8,1.2,4.8,1.2,4.5,7c-0.4,8.3-1.7,16.4-4.4,24.2c-1.2,3.6-1.2,3.6-4.8,3c-1.2-1.5-3-1.7-4.6-2.2c-5.9-2.1-11.4-5-16.6-8.4
		c-7.1-4.7-13.9-9.9-19.4-16.5C404.1,515.1,401.5,513.3,400.9,510.1z"/>
	<path class="st10" d="M400.9,510.1c0.6,3.1,3.3,4.9,5.1,7.2c5.5,6.6,12.2,11.8,19.4,16.5c5.2,3.4,10.7,6.3,16.6,8.4
		c1.6,0.6,3.5,0.7,4.6,2.2c-10.7-0.4-20.9-3.1-30.8-7.1c-9.7-3.9-18.2-9.5-25.3-17.3c-3.4-3.8-6.2-8-8.7-12.9
		C388.3,509.1,394.5,510.1,400.9,510.1z"/>
	<path class="st11" d="M479.5,435.3c-0.2-3.3-0.6-6.6-2.2-9.7c-0.3-0.6-0.6-1.3-1.1-1.9c-2.4-3.4-5.3-6.1-9.9-5.4
		c-4.5,0.7-6.6,4-7.8,8c-0.5,1.5-0.7,3.2-1.2,4.7c-0.9-7.5-0.8-14.9,2.6-21.8c2.4-4.8,6.2-6.1,11.1-4.2c2.8,1.1,5.1,2.9,6.9,5.3
		c4.6,5.7,7.1,12.3,8,19.6c-1,0.1-1.3,1-2,1.5C482.6,432.8,481.5,434.5,479.5,435.3z"/>
	<path class="st12" d="M486.6,509.4c-0.6-3.7-0.3-7.4-0.6-11.1c-1-12.2-4.1-23.9-9.1-35c-3.4-7.6-7.9-14.5-13.8-20.3
		c-7.8-7.8-17-12.9-28.5-11.5c-6.8,0.8-12.6,4.2-17.6,8.8c-2.5,2.3-4.9,4.8-6.7,7.7c-0.3,0.5-0.6,1.2-1.4,1.2
		c6-11.7,14.5-20.3,28.2-22.1c7.7-1,14.5,1.8,20.7,6.2c9.6,6.8,15.8,16.2,20.4,26.7c5.9,13.2,8.8,27.1,8.8,41.6
		C487,504.1,486.7,506.7,486.6,509.4z"/>
	<path class="st13" d="M442,533.5c-4.9-1.7-9-4.7-13-7.7c-5.9-4.4-11.1-9.6-15.9-15.7c7.1-1.1,13.9-1.5,20.7-1.9
		c2.1,3.7,3.8,7.5,5.2,11.5c1.2,3.3,2,6.6,3,10C441.9,531,442,532.3,442,533.5z"/>
	<path class="st2" d="M474.4,397c5.7,5.2,9.1,11.8,11.4,19.1c1.1,3.6,1.9,7.2,2.3,10.9c0.1,0.7,0.3,1.4-0.3,2
		c-1.2-3.6-1.8-7.4-3.3-10.8c-2.6-5.6-5.4-11-10.9-14.3c-6.2-3.8-11.7-2.3-14.9,4.3c-2.9,6.2-3.5,12.8-3.3,19.5
		c0,0.5,0.3,0.9-0.1,1.4c-1-3.7-1.2-7.6-0.9-11.4c0.4-4.3,0.3-8.7,1.8-12.8c1-2.7,1.7-5.5,3.6-7.8c0.2-0.2,0.5-0.3,0.7-0.5
		c0,0,0,0,0,0c4.4-2.1,8.6-1.9,12.7,0.6C473.6,397.4,474.1,397.5,474.4,397z"/>
	<path class="st14" d="M479.5,435.3c2-0.8,3.1-2.5,4.6-3.8c0.6-0.6,1-1.4,2-1.5c0.9,4.5,0.8,9-0.8,13.4c-1.3,3.5-3.6,6.1-6.9,7.8
		c-1.7,0.9-3,1-3.7-1.1c-0.3-1.1-2.4-2.1-0.9-3.2C477.8,443.9,478.9,439.8,479.5,435.3z"/>
	<path class="st15" d="M441.9,529.7c-1-3.3-1.8-6.7-3-10c-1.4-4-3.1-7.8-5.2-11.5c1.9-0.2,3.8-0.1,5.7,0.1c2,6,2.4,12.3,2.9,18.6
		C442.4,527.8,442.7,528.9,441.9,529.7z"/>
	<path class="st16" d="M441.9,529.7c0.7-0.8,0.5-1.8,0.4-2.7c-0.4-6.3-0.9-12.6-2.9-18.6c1-0.2,1.7,0.1,2,1.1c2,7.7,2.9,15.4,2,23.4
		c-0.1,1.1-0.3,1.8-1.4,0.7C442,532.3,441.9,531,441.9,529.7z"/>
	<path class="st1" d="M474.2,440c1.6-1.6,1.1-4.3,2.8-5.9c0.4-0.4,0.4-1,1.1-1.2c1.4,3.6-1.3,10.9-4.5,12.7c-1,0.6-1.4,0.2-1.9-0.6
		c-0.5-0.7-1-1.2,0.1-1.9c1-0.6,2.1-1.3,2.1-2.7C473.9,440.4,474.1,440.2,474.2,440z"/>
	<path class="st11" d="M464.5,424.6c1.6,0,3.1,1.6,3,3.4c-0.1,1.7-0.9,2.9-2.8,3c-1.7,0.1-3.1-1.4-3.1-3.2
		C461.5,426,462.9,424.6,464.5,424.6z"/>
	<path class="st11" d="M474.2,440c-0.1,0.2-0.2,0.4-0.4,0.5c-1.1,0.7-1.9,0.3-2.1-0.9c-0.2-0.6,0.2-1.4,0.9-1.4
		C473.9,438.1,474.2,439,474.2,440z"/>
	<path class="st12" d="M408.5,449.9c-0.1,0.4-0.1,0.8-0.6,1C408.1,450.6,408.3,450.3,408.5,449.9z"/>
	<path class="st12" d="M409,449c0,0.4-0.1,0.8-0.5,1C408.6,449.6,408.8,449.3,409,449z"/>
	<path class="st2" d="M488,433.8c0,0.3,0.1,0.6,0.1,0.9C487.9,434.4,487.8,434.1,488,433.8z"/>
	<path class="st17" d="M488.1,436.1c0,0.2-0.1,0.3-0.1,0.5C488.1,436.4,488.1,436.2,488.1,436.1z"/>
	<path class="st2" d="M487.8,439c0,0.1,0.1,0.2,0.1,0.4c0,0-0.1,0.1-0.1,0.1C487.8,439.3,487.8,439.1,487.8,439z"/>
	<path class="st2" d="M487.9,430.8c0.1,0.1,0.1,0.2,0.1,0.4c0,0-0.1,0.1-0.1,0.2C487.9,431.2,487.9,431,487.9,430.8z"/>
	<path class="st2" d="M590.3,350.3c8.1-3.4,15.4-8,21.9-14c0.4-0.4,0.7-0.8,1.4-0.9c2.8,1.1,4.4,3.7,6.7,5.5
		c6.4,5.1,13,9.7,21.1,11.4c3.1,0.7,6.1,1.1,9.2-1.3c4.5-3.4,9.7-5.6,15-7.5c0.2,3.5,0.2,7,0.6,10.4c0.7,6.7,2.1,13.2,5.4,19.1
		c1.7,3,3.7,5.8,7.5,5.8c10.8,0.1,19.9-4.2,27.2-12c5.2-5.6,7.8-12.4,8.9-19.9c0.8-5.6,0.8-11.2-0.3-16.7c0-0.2,0.1-0.4,0.1-0.5
		c0.9,0.1,1.9,0,2.8-0.2c4.4-0.8,8.7-1.9,13.2-2.2c0.2,1,0.4,2,0.6,3c1.2,8.5,2.7,16.9,5.8,25c1.3,3.5,2.9,7,5.9,9.4
		c4.7,3.7,10.1,4.3,15.8,3.3c12.1-2.1,22-12,21.2-25.5c-0.5-7.9-2.4-15.5-4.4-23.1c0-0.2,0.1-0.3,0.1-0.5c5.1-0.7,9.8-2.6,14.7-3.9
		c0.1,0,0.3,0.1,0.4,0.1c1.6,6.2,4.4,11.8,8.6,16.5c11,12.5,26.8,10.6,35-1.6c7.1-10.5,6.9-22.2,4.2-34.1c0-0.2,0-0.3,0.1-0.5
		c0.9-0.3,1.8-0.6,2.6-0.9c2.8-0.9,5.2-2.8,8.2-3.5c1.3,2,2.6,4,4,5.9c4.3,5.7,9.3,10.3,16.1,13c8.2,3.2,15.5,0.4,19.2-7.5
		c3.8-7.9,3.7-16.3,3-24.7c-0.1-1.6,0.1-3.4-1.1-4.8c0-0.2,0-0.3,0-0.5c3.2-0.2,6.2-1.2,9.3-1.5c6.9-0.8,11.3,1.3,14.4,7.3
		c0.1,2.8-1.2,5.3-1.5,8c-1.2,0.4-1.1,1.7-1.5,2.5c-1.7,3.7-3.6,7.2-5.9,10.5c-5.8,8.4-12.7,15.8-19.7,23.1
		c-6.2,6.5-12.7,12.6-19.4,18.6c-6.2,5.5-12.7,10.8-19.4,15.7c-9.9,7.3-20.1,14-30.9,20c-10.8,6-21.8,11.4-33.2,15.9
		c-15,5.9-30.3,11.1-46.1,14.7c-14.2,3.2-28.6,5.2-43.2,5.5c0.2-0.9,0.4-1.8,0.7-2.8c1.3-5-0.5-8.5-5.5-9.7
		c-4.8-1.2-9.6-0.7-14.1,1.5c-2,1-3.2,2.6-3.1,5.1c0.1,1.6,0.7,2.9,1,4.4c-7.3-0.7-14.3-2.4-21.3-4.6c-16.7-5.4-31.5-13.8-43.7-26.6
		c-5.9-6.2-10.6-13.3-14.2-20.9C592.3,356.3,590.6,353.5,590.3,350.3z M740.2,387c0.2-3-0.9-5.8-3.4-8c-7.5-6.7-16.3-7.7-25.4-4.5
		c-9.6,3.4-12,15-5,22.4c3.8,4,8.6,5.9,14,6.5C731.9,404.7,739.9,396.9,740.2,387z M780.1,389.9c4.3,0,10-1.5,13.7-3.6
		c3.4-1.9,6.4-4.1,8.5-7.5c3.4-5.6,2-12.7-3-15.7c-6.6-4-18.9-2.6-23.8,5.2c-2.2,3.5-3.8,7.2-4.2,11.2
		C770.6,386.5,772.4,390.2,780.1,389.9z M828.1,362.2c3.6,0.2,6.9-0.7,9.8-2.9c3.9-2.8,4.2-7.4,0.9-10.9c-6.3-6.4-19.2-3.4-22.1,5.2
		c-0.8,2.3-0.2,4.2,1.8,5.7C821.3,361.4,824.5,362.4,828.1,362.2z M649.6,369.4c-1.5,0.2-2.9,0.3-4.3,0.5c-1.1,0.2-2.2,0.6-3.2,1
		c-3.7,1.5-5.3,4.4-4.1,8.2c1.5,4.7,5,7.4,9.4,9.2c0.5,0.2,1.2,0.2,1.6,0c4.9-2.6,8.9-6.2,10.7-11.6c0.8-2.2-0.1-4-2.2-5.2
		C655.1,370,652.4,369.7,649.6,369.4z M856.7,339.3c2-0.1,4.2-0.9,6.2-2.2c4.2-2.6,7.6-5.7,8.3-10.9c0.4-2.9-0.9-4.2-3.7-3.6
		c-1.9,0.4-3.9,0.7-5.8,1.2c-4.9,1.3-8.8,3.6-10.1,8.9C850.7,336.3,852.7,339.3,856.7,339.3z"/>
	<path class="st3" d="M590.3,350.3c0.3,3.3,2,6,3.3,8.8c3.7,7.7,8.3,14.7,14.2,20.9c12.2,12.8,27,21.2,43.7,26.6
		c6.9,2.3,14,3.9,21.3,4.6c1.2,2.6,3.2,4.7,5.4,6.5c3.1,2.7,7.3,2.8,10.8,0.6c2.3-1.4,3.5-3.6,4.9-5.7c14.6-0.3,28.9-2.3,43.2-5.5
		c15.8-3.6,31-8.8,46.1-14.7c11.4-4.5,22.5-9.9,33.2-15.9c10.8-6,21-12.7,30.9-20c6.7-4.9,13.1-10.2,19.4-15.7
		c6.7-6,13.2-12.1,19.4-18.6c7-7.3,13.9-14.7,19.7-23.1c2.3-3.3,4.2-6.9,5.9-10.5c0.4-0.9,0.4-2.1,1.5-2.5
		c-1.2,5.6-3.7,10.6-6.3,15.6c-5.6,10.6-12.4,20.5-20.1,29.7c-6.3,7.5-13.2,14.6-20.4,21.3c-6.9,6.4-14.2,12.4-21.6,18.2
		c-8.9,7-18.2,13.2-27.7,19.3c-10,6.4-20.3,12.2-30.7,17.7c-18.5,9.9-37.7,18.3-57.4,25.5c-15.8,5.7-31.9,10.4-48.6,13
		c-5.5,0.9-11,1.4-16.5,1.5c-12.3,0.2-23.5-4-33.8-10.4c-10.7-6.6-19.9-15-28.3-24.2c-13.8-15.1-25.6-31.7-35.7-49.5
		c-1.4-2.4-2.8-4.8-3.8-7.3C571.9,356,581.3,354.1,590.3,350.3z"/>
	<path class="st0" d="M665.6,343.5c-5.3,1.9-10.5,4.2-15,7.5c-3.1,2.3-6.1,1.9-9.2,1.3c-8.1-1.7-14.8-6.3-21.1-11.4
		c-2.3-1.8-3.9-4.4-6.7-5.5c0.8-1.6,2.4-2.6,3.4-4c2.5,1.4,4.4,3.6,6.7,5.2c6.4,4.7,13.3,8.4,21.4,9.1c1.7,0.1,3.1-0.2,4.6-1.2
		c5-3.5,10.4-6.3,16.3-8.1c-0.2,2.2-0.7,4.4-0.4,6.7C665.7,343.2,665.6,343.4,665.6,343.5z"/>
	<path class="st7" d="M665.8,343.1c-0.4-2.3,0.2-4.5,0.4-6.7c8.7-3.8,17.9-6.2,27-8.5c6-1.6,12.1-2.8,18.2-4.1
		c0.8-0.2,1.6-0.2,2.3-0.3c0.4,2.1,0.8,4.1,1.2,6.2c0,0.2-0.1,0.4-0.1,0.5c-0.3,0-0.6,0-0.9,0c-12.1,2.4-24.2,5.2-36,8.9
		C673.8,340.4,669.8,341.8,665.8,343.1z"/>
	<path class="st7" d="M791,315c-0.1,0-0.3-0.1-0.4-0.1c-0.5-2.2-1-4.4-1.5-6.6c7.5-2.3,14.9-4.8,22.2-7.8c7.9-3.2,15.8-6.6,23.6-9.9
		c0.7-0.3,1.3-0.6,2-0.5c1.2,1.5,1.1,3.6,2,5.3c0,0.2,0,0.3-0.1,0.5c-5.2,2.2-10.4,4.4-15.6,6.6c-7.3,3.1-14.6,6-22,8.7
		C797.8,312.5,794.2,313.2,791,315z"/>
	<path class="st7" d="M775.9,318.8c0,0.2-0.1,0.3-0.1,0.5c-1.6-0.3-2.9,0.6-4.4,0.9c-7.9,1.6-15.7,3.2-23.7,4.2
		c-5.5,0.7-11.1,1.6-16.6,2.5c-0.2-2.2-0.5-4.4-0.7-6.6c4.6-0.8,9.3-1.8,13.9-2.4c8.9-1.1,17.7-2.7,26.5-4.6c1-0.2,2-0.3,3.1-0.3
		C774.6,314.9,775.2,316.9,775.9,318.8z"/>
	<path class="st7" d="M891,272.4c0,0.2,0,0.3,0,0.5c-2.6,0.3-5,1.4-7.4,2.4c-10.6,4.3-20.9,9.1-31.1,14c-0.9,0.4-1.7,0.9-2.7,0.8
		c-1.2-1.6-1.7-3.4-2.3-5.3c6.4-3.1,12.8-6.2,19.3-9.1c4.6-2.1,9.2-4.2,13.9-6.2c3-1.3,5.9-2.6,9.1-3.3
		C890.3,268.3,891,270.2,891,272.4z"/>
	<path class="st0" d="M730.4,320.3c0.2,2.2,0.5,4.4,0.7,6.6c-0.1,0.1-0.1,0.3-0.2,0.4c-4.5,0.3-8.8,1.4-13.2,2.2
		c-0.9,0.2-1.9,0.3-2.8,0.2c-0.4-2.1-0.8-4.1-1.2-6.2c4.2-1.6,8.8-1.9,13.2-2.8C728.1,320.4,729.2,320,730.4,320.3z"/>
	<path class="st0" d="M775.9,318.8c-0.6-1.9-1.3-3.9-1.9-5.8c0.1-0.4,0.2-0.7,0.7-0.8c4.8-1.3,9.7-2.5,14.5-3.8
		c0.5,2.2,1,4.4,1.5,6.6C785.7,316.2,780.9,318.1,775.9,318.8z"/>
	<path class="st0" d="M847.5,284.9c0.6,1.8,1.1,3.7,2.3,5.3c0,0.3,0,0.6,0,0.9c-2.9,0.7-5.3,2.6-8.2,3.5c-0.9,0.3-1.8,0.6-2.6,0.9
		c-0.9-1.7-0.8-3.7-2-5.3c0.1-0.5,0.3-0.8,0.8-1C841,287.8,844.1,285.9,847.5,284.9z"/>
	<path class="st2" d="M442.9,22c-2.7,2.4-5.4,4.8-7.7,7.6c-4.1,5.2-0.7,10,3.6,11.9c1.7,0.7,3.6,1.2,5.5,1c0,3.1-0.5,6.2-1,9.3
		c-5.3,0.2-8.6,3.1-10.6,7.7c-1.4,3.1-2.5,6.3-3.3,9.6c-14.5,5.1-28.4,11.5-41.7,19.3c-8.6,5-16.6,10.9-24.9,16.4
		c-0.7,0.4-1.4,0.8-2,1.2c-0.1-1.2,0.3-2.2,0.7-3.2c4.5-12.4,9.6-24.5,15.8-36.1c9.8-18.4,21.6-35.2,37.5-48.9
		c0.6-0.5,1.2-1.1,0.9-2c0,0,0,0,0,0c0.4,0,0.7,0,1.1,0.1c1.9-1.2,4.1-2.1,5.1-4.4c0,0,0,0,0,0c0.4,0,0.8,0,1-0.5c0,0,0,0,0,0
		c0.2-0.2,0.3-0.3,0.5-0.5c0,0,0,0,0,0c0.4,0,0.8-0.1,1-0.6c6.1-3.5,12.5-6.2,19.2-8.2c0.6-0.2,1.2-0.2,1.9-0.2
		C443.4,8.1,442.5,15,442.9,22z M424.3,46.2c0.2-3.6-1.9-5.7-4.6-7c-5.4-2.6-13.2,0.4-16,5.7c-2.3,4.5-0.1,9.4,4.9,10.5
		c5.3,1.1,9.8-0.7,13.7-4.2C423.8,49.9,424.5,48.1,424.3,46.2z M411.8,66.5c0-1-0.9-2-2.4-2.5c-3.9-1.2-7.7-0.4-11.3,1.1
		c-3.3,1.3-5.4,3.7-5.6,7.3c-0.2,2.3-0.1,5,2.1,6.5c2,1.3,4,0,5.7-1.1c3-1.9,5.9-4,8.8-6.1C410.5,70.5,411.9,69.2,411.8,66.5z"/>
	<path class="st0" d="M415.6,15.7c0.3,0.9-0.3,1.5-0.9,2c-15.9,13.7-27.7,30.5-37.5,48.9c-6.2,11.6-11.3,23.7-15.8,36.1
		c-0.4,1-0.8,2.1-0.7,3.2c-2.5,2.3-5.3,4.2-8.1,6.2c2.2-7.8,5.2-15.3,8.4-22.8c8.4-19.4,18.8-37.6,32.7-53.7
		c6-6.9,12.6-13.2,19.9-18.8C414.2,16.4,414.7,15.7,415.6,15.7z"/>
	<path class="st3" d="M442.9,22c-0.4-7,0.5-13.8,2.4-20.6c2.6,0.1,2.9,2.2,2.7,3.9c-0.3,3.2-0.1,6.5-0.6,9.7
		c-0.2,1.4,0.9,2.8-0.3,4.1C445.7,20,444.3,21,442.9,22z"/>
	<path class="st2" d="M421.8,11.4c-1.1,2.2-3.2,3.1-5.1,4.4c-0.2-0.2-0.5-0.4-0.7-0.6C417.8,13.7,419.6,12.3,421.8,11.4z"/>
	<path class="st2" d="M422.8,10.9c-0.2,0.4-0.6,0.5-1,0.5C422,11,422.3,10.9,422.8,10.9z"/>
	<path class="st2" d="M424.2,9.9c-0.1,0.5-0.5,0.6-1,0.6C423.6,10.3,423.9,10.1,424.2,9.9z"/>
	<path class="st2" d="M416,15.2c0.2,0.2,0.5,0.4,0.7,0.6c-0.4,0-0.7,0-1.1-0.1C415.7,15.5,415.9,15.4,416,15.2z"/>
	<path class="st2" d="M423.3,10.5c-0.2,0.2-0.3,0.3-0.5,0.5C422.8,10.6,423,10.5,423.3,10.5z"/>
	<path class="st18" d="M505.4,183.7c-1.7-9.9-3.3-19.9-6.8-29.4c-1.1-3.1-2.5-6.2-3.8-9.2c-0.4-1-0.6-1.7,0.4-2.4
		c12.1-9.3,25.2-16.8,39.4-22.3c6.5-2.5,13.1-1.8,19.7-0.9c2.3,0.3,4.5,0.8,6.8,1.3c1.1,1.5,3,1.4,4.6,2
		c11.6,4.4,23.3,8.7,34.4,14.3c5.5,2.8,11.1,5.5,16.3,8.8c6.7,4.3,13.2,8.9,19.3,14.2c5.9,5.2,8.8,11.6,9.4,19.2
		c0.6,7.7-1.2,14.8-5.1,21.4c-1.9,3.1-4.3,5.8-7.4,7.6c-13.1,7.7-27.1,8.3-41.5,4.6c-6.8-1.7-13.5-3.8-20.2-5.9
		c-6.9-2.2-14-3.9-21-5.7c-7.8-2-15.5-4.4-23.2-7c-5-1.7-9.9-3.7-14.5-6.4C510,186.4,507.9,184.6,505.4,183.7z M601.3,143.1
		c0.2,0.2,0.3,0.6,0.6,0.2C601.7,143.3,601.5,143.2,601.3,143.1c-0.2-0.7-0.9-0.9-1.4-1.2c-7.4-4.1-15-7.6-22.8-10.6
		c-7.5-2.8-15.1-5.3-23.1-6.2c-9-1.1-17.5,0.9-25.6,4.9c-8.3,4.1-15.7,9.6-22.7,15.6c-1.1,1-2.6,1.9-3.1,3.9
		c0.6-0.3,0.9-0.4,1.2-0.6c7.2-4.3,14.8-7.7,22.7-10.3c11.5-3.8,23.2-5.3,35.4-4c8,0.9,16,2.1,23.8,4.2
		C590.8,140,596,141.6,601.3,143.1z"/>
	<path class="st18" d="M365.5,246.7c3.8-2.9,7.6-5.9,11.4-8.8c5.4-4,11.2-7.5,17.2-10.6c5-2.5,10.4-2.2,15.6-2.4
		c11.6-0.4,23.1,0.2,34.6,1.8c5.6,0.8,11.4,1.6,16.1,5.1c4.3,3.2,8.4,6.5,12.2,10.2c0.5,0.5,1.1,1,1.6,1.4c-0.1,1,0.4,1.7,1,2.3
		c2.6,2.7,4.7,5.8,7,8.7c4,5.2,7.6,10.8,10.3,16.7c3.8,8.2,5.8,17,6.9,26c0.5,3.6-0.1,5-2.6,5.7c-1.8,0.5-3.7,0.8-5.6,1.1
		c-8.7,1.4-17.5,1.5-26.2,1.8c-8.1,0.3-16.3,0.1-24.5-0.2c-10.4-0.4-20.7-0.7-31.1-1.6c-5.7-0.5-11.5-0.8-17.2-1.6
		c-7.5-1-15-2-22.4-3.7c-5.7-1.3-11.4-2.7-16.6-5.5c-2.4-1.2-4.9-2.7-5.4-5.6c-1.7-8.3-0.1-16.3,3.8-23.6c2.5-4.7,5.8-9,9.8-12.7
		c0.8-0.7,1.8-1.4,1.6-2.7c0,0,0,0,0,0C364.5,248.6,365.3,248.1,365.5,246.7z M354.5,272c0.5,0,0.9-0.2,1.3-0.6
		c7.5-6.5,15.2-12.7,23.3-18.4c6.5-4.7,13.1-9.3,20.6-12.3c7.8-3.1,16.1-3.4,24.3-3.6c9.8-0.2,19.6,0.3,29.4,1.3
		c3.2,0.3,6.3,1,10.1,1.1c-2.9-2.6-6-3.6-9-4.7c-12.6-4.8-25.5-7.2-39.1-6.8c-5,0.2-9.8,0.8-14.5,2.2c-9.9,2.8-17.8,8.9-25.2,15.7
		c-5,4.6-9.4,9.6-13.5,15C359.5,264.4,356.4,267.8,354.5,272c-0.1,0.2-0.2,0.3-0.4,0.5c0.1,0,0.1,0.1,0.2,0.1
		C354.4,272.4,354.5,272.2,354.5,272z"/>
	<path class="st18" d="M532.1,202.8c0.3,0,0.6,0,0.9,0.1c0.3,1.2,1.4,1.1,2.3,1.4c12.6,4,24.9,8.7,36.5,15.1
		c4.7,2.6,9.3,5.3,13.7,8.5c7.9,5.7,15.1,12,21.4,19.5c2.4,2.9,4.8,5.8,5.3,9.6c0.5,4.5-1.6,8.1-4.5,11.3c-5,5.5-11.2,9.3-17.7,12.7
		c-9.1,4.8-18.7,8.5-28.2,12.4c-8.8,3.6-17.4,3.4-26-0.7c-6.2-3-11.6-7.2-16.5-11.8c-5-4.7-9.5-9.8-14.1-14.9
		c-8.5-9.3-17.9-17.8-28.3-24.9c-2.1-1.5-4.1-3.4-6.9-3.9c0,0,0,0,0,0c-0.2-0.4-0.5-0.5-0.9-0.5c-2.1-1.6-4.1-3.2-6.2-4.8
		c-1-0.8-1.2-1.5-0.1-2.5c11.4-10.1,23-19.9,36-27.9c4.6-2.8,9.4-2.9,14.4-2.3c5.9,0.6,11.7,2,17.4,3.2
		C530.8,203.3,531.3,203.6,532.1,202.8z M476.2,227.6c1.5-0.2,2.5-1.3,3.7-2.1c8.9-5.7,18.7-8.5,29.2-9c7.1-0.3,14.1,0.6,21,2.1
		c16,3.5,31.5,8.6,46.8,14.2c3,1.1,6,2.2,9.3,3.4c-0.5-1.3-1.4-1.4-2.1-1.7c-8.9-4.8-18-9.5-27.2-13.6c-10.8-4.9-21.7-9.4-33.3-12.1
		c-5.6-1.3-11.3-2.2-17.1-1c-9.1,1.9-17,6-23.8,12.2C480.2,222.3,477.6,224.4,476.2,227.6c-0.1,0-0.2,0.1-0.2,0.2
		C476.1,227.8,476.2,227.7,476.2,227.6z"/>
	<path class="st18" d="M269.2,261.5c-1.8-5.6-2.3-11.2-1.8-17c0.2-2.3,0.6-4.5,0.8-6.8c1.9-5.3,3.1-10.8,5.1-16
		c3.5-9.2,7.7-18.1,13.4-26.2c1.5-2.2,3.8-3,6.1-3.7c8.5-2.3,17.1-4.6,25.6-6.9c8.6-2.3,17.4-3.5,26.2-3.9
		c5.8-0.3,11.5,0.7,17.2,1.7c3.3,0.6,6.4,1.5,9.2,3.5c4.7,3.4,8.2,7.8,10.9,12.9c2.9,5.4,4.4,11.1,3.6,17.3
		c-0.6,4.7-3.6,7.6-7.1,10.5c-9.2,7.7-18.2,15.7-27.8,23c-6.2,4.7-12.5,9.2-19.2,13c-9.4,5.4-19.3,9.6-30.1,11.2
		c-3.9,0.6-7.9,1.2-11.8,0.6c-7.9-1.3-13.7-5.8-18.6-11.9C270.5,262.2,270.1,261.5,269.2,261.5z M360.2,188.6
		c-8.5,0-16.9,0.7-25.3,1.7c-10.1,1.2-20.1,2.7-29.9,5.3c-8.8,2.4-16.7,6.2-22.1,14.1c-5.5,8-6.9,16.7-5.9,26c0.3,2.5,0.7,4.9,2,7.7
		c0.3-3,0.2-5.4,0.5-7.8c1.8-12.8,8.1-22.5,19.7-28.5c10.6-5.5,22.1-8.8,33.5-11.9C341.8,192.7,351,190.7,360.2,188.6z"/>
	<path class="st18" d="M393.7,197.5c-2.2-5-3.9-10.2-6.3-15.1c-1.1-2.3-2.5-4.4-4-6.5c-0.6-0.9-0.8-1.5,0-2.4
		c7-8.4,14.6-16.3,22.9-23.5c3.4-2.9,6.9-5.6,10.4-8.2c5.6-4.2,12.1-5.8,18.9-6.2c5.1-0.3,10.1-0.7,15.2-0.5
		c8.3,0.4,16.6,0.6,24.8,2.4c0,1,0.8,1.3,1.4,1.7c4.2,3,7.3,6.9,9.7,11.5c3.9,7.6,5.7,15.7,4.6,24.3c-0.4,2.8-1.1,5.5-2.5,7.9
		c-3.5,6-7.8,11.5-12.9,16.4c-4.9,4.7-10.3,8.8-16.3,12.1c-11.1,6.1-22.9,9-35.5,6.6c-10.5-2-19.6-7.1-26.4-15.7
		C396.7,200.6,395.7,198.6,393.7,197.5z M414.2,208c-0.2-0.2-0.3-0.3-0.5-0.5c0.1-0.9-0.3-1.6-0.7-2.2c-3.4-4.8-6-10.1-8.4-15.4
		c-1.9-4.5-3.4-9.1-3.7-13.9c-0.6-8.5,4.3-14.4,10.3-19.3c8.4-6.9,18.5-10.6,28.9-13.5c6.5-1.8,13.2-2.9,19.9-4
		c-8.2-0.5-16.3,0-24.3,1.7c-16.5,3.5-30.9,10.9-41.6,24.3c-4.7,5.9-6.2,11.2-1.8,18.2c5.8,9.2,13.3,17.1,21.4,24.3
		C413.9,207.7,414,207.9,414.2,208c0,0.1,0,0.1,0.1,0.2c0,0,0.1,0,0.1,0C414.3,208.2,414.3,208.1,414.2,208z"/>
	<path class="st19" d="M363.2,248.6c0.2,1.3-0.8,2-1.6,2.7c-4,3.7-7.3,8-9.8,12.7c-4,7.4-5.5,15.3-3.8,23.6c0.6,2.9,3.1,4.4,5.4,5.6
		c5.2,2.7,10.9,4.2,16.6,5.5c7.4,1.7,14.9,2.7,22.4,3.7c5.7,0.8,11.5,1.1,17.2,1.6c10.3,0.9,20.7,1.1,31.1,1.6
		c8.2,0.3,16.4,0.5,24.5,0.2c8.8-0.3,17.5-0.5,26.2-1.8c1.9-0.3,3.7-0.6,5.6-1.1c2.5-0.7,3.1-2.1,2.6-5.7c-1.2-9-3.2-17.8-6.9-26
		c-2.7-6-6.3-11.5-10.3-16.7c-2.3-2.9-4.4-6-7-8.7c-0.6-0.6-1.1-1.3-1-2.3c5.9,5.1,11.3,10.7,16.5,16.4c4.2,4.6,8.2,9.4,12.1,14.3
		c4.7,5.9,9.1,11.9,13.4,18.1c6.7,9.7,12.6,19.9,18.5,30.2c0.4,0.6,0.7,1.3,0.5,2c-5.8,0.7-11.6,1.5-17.4,2.1c-3,0.3-6,0.7-9,0.7
		c-9.4,0.1-18.8,0.3-28.1-0.1c-7.9-0.3-15.8-0.8-23.7-1.7c-6.4-0.7-12.8-1.2-19.1-2c-8.7-1-17.4-2.1-26.1-3.4
		c-11.6-1.8-23.3-3.8-34.8-6.1c-21.5-4.2-42.7-9.2-63.6-15.9c1.4-3.2,4.1-5.3,6.3-7.9c7.9-9.3,16.6-17.9,25.4-26.4
		c5.4-5.2,11.2-10,16.9-15C362.3,248.8,362.8,248.7,363.2,248.6z"/>
	<path class="st18" d="M489.6,72c0.9,0,1.9,0.1,2.8,0.1c1.3,1.9,3.3,1,5,1.3c7.9,1.3,15.7,2.9,22.7,7c3.5,2.1,6.5,4.6,7.9,8.7
		c1.8,5.5,2.5,11.1,2,16.8c-0.2,2.8-0.2,5.7-2.8,8c-5.6,5.1-12,8.6-18.9,11.5c-9.8,4.2-19.8,5.6-30.4,4.2
		c-10.7-1.4-21.5-2.3-32.4-2.4c-3.6,0-6.6-1.1-9.2-3.7c-2.6-2.7-4.3-5.8-5.5-9.3c-0.4-1.3-0.3-2.9-1.8-3.7c-0.3-5-0.6-10-2.7-14.6
		c-0.7-1.6,0.9-2.1,1.7-2.7c4-3.2,8.3-5.9,12.6-8.5c6.9-4.2,14-7.8,21.5-10.7c4.4-1.7,8.9-2.7,13.7-2.6c4.2,0.2,8.4,0.1,12.6,0.2
		C488.8,72.3,489,72.8,489.6,72z M450.5,121.7c0.2,0.1,0.3,0.2,0.5,0.3c0,0,0.1-0.1,0.1-0.2C450.9,121.8,450.7,121.7,450.5,121.7
		c0.1-0.7-0.3-1.1-0.7-1.5c-2.4-2.4-4.4-5-6-7.9c-5.2-9.4-5.3-18.8,5.3-25.3c4.8-2.9,9.6-5.9,14.8-8.1c2.5-1,4.9-2.2,7.5-3.3
		c-0.9-0.3-1.5-0.1-2.1,0c-4.9,0.9-9.6,2.2-14.1,4.1c-6.7,2.8-13.2,5.9-18.2,11.4c-1.9,2.1-3,4.3-3.1,7.2
		C433.3,108.5,441.7,118,450.5,121.7z"/>
	<path class="st18" d="M296.7,177.9c4.3-7.6,9.2-14.8,14.5-21.7c7.5-9.9,15.8-19.2,24.9-27.8c10.6-10.1,21.9-19.2,34.3-27
		c2.2-1.4,4.8-2,7.4-2.2c2.4,0,4.7-0.6,7-1c7.9-1.1,15.7-1.9,23.6-0.8c6.6,1,9,1.7,10.3,8.3c1,5.3,1,10.7-0.2,16
		c-0.6,2.7-1.1,5.6-3,7.7c-3,3.5-6.3,6.7-9.8,9.7c-6.1,5.3-12.5,10.1-19.5,14.1c-5.6,3.2-11.2,6.2-17.1,8.5
		c-8.6,3.5-17.6,5.4-26.7,7.2c-14.2,2.9-28.3,5.9-42.4,8.8C299,178.1,297.9,179,296.7,177.9z M397,107.3c-0.1-0.3-0.2-0.5-0.3-0.8
		c-17.6-0.9-33.9,3.2-48.3,13.6c-12.4,9-21.3,21-27.5,35.5c0.8-0.3,1.1-0.3,1.3-0.5c5.8-7.1,12.1-13.8,19.1-19.9
		c5.8-5,11.9-9.8,18.9-13.1c9.3-4.3,18.9-7.9,28.4-11.6C391.3,109.5,394.1,108.4,397,107.3z"/>
	<path class="st19" d="M470,237.2c2.7,0.5,4.7,2.4,6.9,3.9c10.5,7.1,19.8,15.6,28.3,24.9c4.6,5,9.1,10.2,14.1,14.9
		c5,4.7,10.4,8.8,16.5,11.8c8.5,4.2,17.2,4.3,26,0.7c9.5-3.9,19.1-7.6,28.2-12.4c6.5-3.4,12.7-7.2,17.7-12.7
		c2.9-3.2,5.1-6.8,4.5-11.3c-0.5-3.8-2.8-6.8-5.3-9.6c-6.3-7.4-13.5-13.8-21.4-19.5c-4.4-3.2-9-5.9-13.7-8.5
		c-11.6-6.4-23.9-11.2-36.5-15.1c-0.8-0.3-2-0.2-2.3-1.4c5,0.8,9.8,2.4,14.6,4c17.4,5.4,34.3,12.3,50.9,19.9
		c14.5,6.6,28.7,13.9,42.8,21.2c1.1,0.6,2,1.6,3.4,1.7c0,3.4-2.4,5.6-4,8.2c-6.5,11-14.2,21-23.4,29.9c-11,10.6-23.7,18.5-37.8,24.4
		c-10.9,4.6-22.3,7.7-33.9,10.3c-2.8,0.6-5.6,1.1-8.4,1.6c-5.3-9.6-10.7-19.1-16.8-28.2c-6.2-9.3-12.7-18.3-19.9-26.9
		c-6.7-8-13.8-15.8-21.3-23.1C476.3,242.9,472.8,240.4,470,237.2z"/>
	<path class="st19" d="M505.4,183.7c2.6,0.9,4.6,2.7,6.9,4.1c4.6,2.7,9.5,4.7,14.5,6.4c7.6,2.6,15.3,5,23.2,7c7,1.8,14.1,3.5,21,5.7
		c6.7,2.1,13.4,4.2,20.2,5.9c14.4,3.6,28.4,3,41.5-4.6c3.1-1.8,5.5-4.5,7.4-7.6c3.9-6.6,5.7-13.7,5.1-21.4
		c-0.6-7.6-3.5-14.1-9.4-19.2c-6-5.3-12.6-9.9-19.3-14.2c-5.2-3.3-10.7-6.1-16.3-8.8c-11.2-5.6-22.8-9.9-34.4-14.3
		c-1.5-0.6-3.4-0.4-4.6-2c6.1,0.6,11.9,2.4,17.8,3.9c17.8,4.7,35,10.9,51.9,18.4c8.6,3.8,17.1,8,25.4,12.4c0.5,0.3,1.2,0.4,1.8,0.6
		c1.6,11.9,2,23.8,1.4,35.8c-0.9,18.8-3.9,37.2-12.2,54.5c-0.4,0.8-0.6,1.8-1.6,2.3c-14.2-7.9-28.6-15-43.3-21.9
		c-12.6-5.9-25.4-11.3-38.4-16c-13.2-4.8-26.5-9-40.4-11.6c-4.6-0.9-9.2-1.6-13.9-1.6c-3,0-3.5-0.4-3.4-3.5
		C506.3,190.6,505.2,187.2,505.4,183.7z"/>
	<path class="st18" d="M569.3,68.8c10.1,1.6,20,4.1,29.5,7.9c12.2,4.9,23.3,11.5,32.8,20.6c4.9,4.7,9.6,9.4,13.1,15.3
		c0.1,0.9,0,1.9,0.2,2.8c0.8,3.6,0.5,7-0.8,10.4c-0.7,1.8-1.8,3.1-3.7,3.7c-4.8,1.3-9.7,1.3-14.2-0.5c-11-4.3-22.3-7.6-33.8-10
		c-10.1-2.1-20.2-4.5-29.8-8.4c-4.6-1.9-9.1-3.9-11.9-8.5c-1.9-3.2-3.1-6.4-3.6-10.1c-0.6-4.9,0.7-9.1,3.8-12.7
		c4.2-4.8,9.7-7.5,15.8-9.1C567.7,69.9,568.9,70,569.3,68.8z M602.2,79.7c0.2,0.2,0.3,0.6,0.6,0.2C602.6,79.8,602.4,79.7,602.2,79.7
		c-1.6-1.3-3.6-1.7-5.4-2.4c-10.3-3.9-20.9-5.9-31.8-2.8c-3.4,0.9-6.5,2.5-8.7,5.4c-3.6,4.7-2.6,15.1,0.6,21c0-1.9,0-3.6,0-5.4
		c0.2-7.2,5.5-14.3,12.4-16.4c6.1-1.9,12.4-1.4,18.6-1C592.7,78.4,597.4,79.1,602.2,79.7z"/>
	<path class="st19" d="M269.2,261.5c0.9,0.1,1.3,0.8,1.8,1.4c4.9,6,10.7,10.6,18.6,11.9c3.9,0.6,7.9,0,11.8-0.6
		c10.8-1.7,20.7-5.9,30.1-11.2c6.7-3.8,13-8.3,19.2-13c9.6-7.3,18.6-15.2,27.8-23c3.4-2.9,6.5-5.8,7.1-10.5
		c0.8-6.2-0.7-11.9-3.6-17.3c-2.7-5.1-6.2-9.5-10.9-12.9c-2.8-2-5.9-2.9-9.2-3.5c-5.7-1-11.4-2-17.2-1.7c-8.8,0.4-17.6,1.7-26.2,3.9
		c-8.5,2.3-17.1,4.6-25.6,6.9c1.5-1.9,3.8-2.5,5.9-3.3c11.2-4.4,22.9-7.2,34.8-9.4c14.2-2.7,28.5-4.8,43.1-4.5
		c3.1,0.1,5.2,1.1,6.8,3.8c3,4.8,5.2,10,7.2,15.2c3.4,8.9,6,18,8.5,27.2c0.6,2.1,0.4,3.2-2.1,3.9c-7.4,2.2-13.6,6.8-19.9,11
		c-8.5,5.8-16.5,12.2-24.2,19.1c-10.9,9.7-21.4,19.8-31,30.8c-3.1,3.6-6.3,7.1-9.3,10.8c-0.3,0.4-0.5,0.8-0.7,1.2
		c-4.1-1.5-8.2-2.8-12.2-4.4c-8.1-3.2-15.4-7.8-21.2-14.4C274.2,273.7,270.9,268,269.2,261.5z"/>
	<path class="st19" d="M393.7,197.5c1.9,1.1,3,3,4.2,4.7c6.8,8.6,15.8,13.7,26.4,15.7c12.5,2.3,24.3-0.5,35.5-6.6
		c6-3.3,11.4-7.4,16.3-12.1c5-4.8,9.3-10.3,12.9-16.4c1.4-2.4,2.1-5.1,2.5-7.9c1.1-8.6-0.7-16.7-4.6-24.3c-2.3-4.6-5.5-8.5-9.7-11.5
		c-0.6-0.5-1.5-0.7-1.4-1.7c5.5,0.7,10.8,1.8,15.4,5c2.5,1.8,3.1,4.7,4.2,7.3c3.9,9.1,6,18.6,7.6,28.3c0.9,5.6,1.4,11.3,1.9,16.9
		c0.1,1.5-0.3,2.2-1.9,2.9c-5.8,2.5-11.1,6.1-16.2,9.8c-9,6.5-17.4,13.7-25.5,21.3c-0.7,0.6-1.2,0.8-2.1,0.4c-6-3.1-12.5-3.8-19-4.6
		c-10.2-1.3-20.4-1.5-30.6-1.4c-2.1,0-4.3,0.3-6.4,0.4c-1.3,0.1-2.1-0.3-2.4-1.7C399,213.8,396.3,205.7,393.7,197.5z"/>
	<path class="st19" d="M569.3,68.8c-0.4,1.3-1.6,1.1-2.5,1.4c-6.1,1.6-11.6,4.2-15.8,9.1c-3.1,3.6-4.5,7.8-3.8,12.7
		c0.5,3.7,1.6,6.9,3.6,10.1c2.8,4.6,7.3,6.7,11.9,8.5c9.6,3.9,19.7,6.3,29.8,8.4c11.5,2.4,22.8,5.7,33.8,10
		c4.6,1.8,9.4,1.8,14.2,0.5c1.9-0.5,3.1-1.9,3.7-3.7c1.3-3.4,1.5-6.9,0.8-10.4c-0.2-0.9-0.2-1.9-0.2-2.8c2.9,3,4.4,6.8,6.6,10.2
		c0.4,0.6,0.5,1.5,1.4,1.8c2,7,3.2,14.1,4.2,21.3c0.4,2.9,0.8,5.8,1.2,8.6c-1.7-0.2-2.8-1.4-4.2-2.1c-11.1-5.7-22.3-11-33.9-15.6
		c-16.1-6.5-32.6-11.9-49.5-15.8c-7.6-1.8-15.3-3.4-23.1-3.7c-1.6-0.1-3.2-0.7-4.9-0.2c-0.9,0.3-1.1-0.7-1.1-1.4
		c-0.2-6.6-0.9-13.2-1.9-19.8c-0.6-3.8-1-7.7-2.4-11.3c-0.8-2.3-0.6-3.6,1.4-5.3c5-4.3,10.4-7.7,16.8-9.7
		C559.7,68.2,564.5,67.6,569.3,68.8z"/>
	<path class="st19" d="M296.7,177.9c1.1,1.1,2.3,0.1,3.3-0.1c14.2-2.9,28.3-5.9,42.4-8.8c9.1-1.8,18.1-3.8,26.7-7.2
		c5.9-2.4,11.6-5.4,17.1-8.5c7.1-4,13.4-8.9,19.5-14.1c3.5-3,6.8-6.3,9.8-9.7c1.8-2.1,2.3-5,3-7.7c1.2-5.3,1.2-10.7,0.2-16
		c-1.3-6.6-3.8-7.4-10.3-8.3c-7.9-1.1-15.8-0.3-23.6,0.8c-2.3,0.3-4.6,0.9-7,1c1.3-1.7,3.3-1.4,5-1.7c11.2-2.1,22.5-3.7,33.9-3.5
		c8.5,0.2,8.8,0.9,10.1,8.7c1.4,7.9,1.1,16,0.3,24c-0.3,2.6-0.7,5.2-1,7.8c-0.1,0.9-0.6,1.3-1.4,1.7c-6.3,2.2-11.3,6.3-16.4,10.4
		c-6.1,4.8-11.6,10.4-16.9,16c-3.1,3.3-6.1,6.7-9,10.1c-0.7,0.8-1.3,1.2-2.4,1c-5.2-0.8-10.5-0.5-15.7-0.2
		c-5.1,0.3-10.2,1.2-15.3,1.8c-6.7,0.8-13.3,2-19.9,3.4c-11.3,2.3-22.4,5.1-33,9.5c-2.1,0.9-4.1,1.8-6.8,3.1
		C292,186.2,294.1,181.9,296.7,177.9z"/>
	<path class="st19" d="M429.1,110.6c1.4,0.8,1.3,2.4,1.8,3.7c1.2,3.5,2.9,6.6,5.5,9.3c2.5,2.6,5.6,3.7,9.2,3.7
		c10.8,0,21.6,0.9,32.4,2.4c10.5,1.4,20.6,0,30.4-4.2c6.9-3,13.3-6.4,18.9-11.5c2.6-2.3,2.5-5.2,2.8-8c0.5-5.7-0.2-11.3-2-16.8
		c-1.4-4.2-4.4-6.7-7.9-8.7c-7-4.1-14.8-5.8-22.7-7c-1.6-0.3-3.7,0.6-5-1.3c7.3,0.3,14.6,1.2,21.9,2.5c4.1,0.7,8.2,1.7,12.3,2.7
		c5.6,1.3,8.8,4.6,9.8,10.2c1.4,7.5,2.5,15.1,2.9,22.8c0.1,1.9,0.5,3.8,0.4,5.7c0,1-0.2,1.7-1.3,1.9c-7.8,1.7-14.7,5.5-21.6,9.2
		c-6.1,3.2-12,6.8-17.6,10.8c-1.2,0.9-2.6,1.7-3.6,2.7c-1.7,1.7-2.8,1.3-4.5,0.1c-4-2.8-8.7-3.7-13.4-4.6c-11.2-2.1-22.6-2.7-34-2.4
		c-4.6,0.1-9.2,0.4-13.7,1.3c-1.3,0.3-2.7,0.6-2.1-1.9c1.2-5.7,0.9-11.5,1.5-17.2C429.6,114.1,428.7,112.4,429.1,110.6z"/>
	<path class="st18" d="M388.4,89.7c10.2-6.3,21.1-11.4,32.2-15.8c13.1-5.2,26.5-9.3,40.3-11.8c-0.2,3.4-2.2,6-4.7,8
		c-6.7,5.3-14.3,9.2-22.1,12.8c-7.6,3.5-15.7,4.9-24,6c-5.7,0.7-11.4,0.6-17,1.3C391.7,90.3,389.9,90.7,388.4,89.7z"/>
	<path class="st19" d="M470,70.1c1.1-3.3,2.9-6.2,4.6-9.3c0.4-0.7,0.9-0.8,1.6-0.8c-0.2,2.7,1.5,3.8,3.8,4.3
		c5,1.3,10.1,1.8,15.2,1.8c6.6,0.1,13.2-0.2,19.6,1.2c10.6,2.4,20.1-0.8,29.7-4.5c5.8,0.7,11.5,2.1,17.7,3.6
		c-4.6,1-8.7,1.7-12.5,3.5c-4.6,2.2-8.9,4.9-12.6,8.3c-1.2,1.1-2,1.5-3.6,0.5c-5-3.1-10.8-4.2-16.4-5.2c-8.2-1.6-16.6-2.4-24.9-3.1
		C484.8,69.9,477.4,70.3,470,70.1L470,70.1z"/>
	<path class="st18" d="M544.5,62.9c-9.5,3.7-19.1,6.9-29.7,4.5c-6.4-1.4-13.1-1.1-19.6-1.2c-5.1-0.1-10.2-0.6-15.2-1.8
		c-2.3-0.6-4-1.6-3.8-4.3c2.9-1,5.9-1.1,8.9-1.1c6-0.2,12-0.9,18-0.4c4.7,0.4,9.3,0.2,14,0.6C526.3,60,535.5,60.9,544.5,62.9z"/>
	<path class="st19" d="M388.4,89.7c1.5,1,3.3,0.6,4.8,0.4c5.7-0.7,11.3-0.5,17-1.3c8.3-1.1,16.4-2.5,24-6
		c7.7-3.6,15.4-7.5,22.1-12.8c2.5-2,4.4-4.6,4.7-8c3.4-0.6,6.8-1.3,10.2-1.8c1.2-0.2,1.9,0,1.2,1.5c-1.5,2.9-2.9,5.8-4.4,8.7
		c-0.2,0.5-0.7,0.6-1.1,0.8c-14.1,4.4-26.7,11.7-38.5,20.3c-2.4,1.8-4.4,1.9-7.1,1.5c-4.8-0.8-9.7-0.5-14.5-0.1
		c-4.9,0.4-9.9,0.9-14.8,1.7c-4,0.6-7.9,1.4-11.9,2.1c-0.9,0.2-1.7,0.2-2.6,0.3l-0.1-0.1C380.7,93.9,384.6,91.8,388.4,89.7z"/>
	<path class="st3" d="M443.2,51.8c0.4-3.1,1-6.2,1-9.3c5.7-0.9,9.8-3.8,11.9-9.3c0.7-1.8,1.3-3.6,1.1-5.5c2.9,0.2,4.2,2.2,5.2,4.5
		c1.3,3.2,1,6.5,0.2,9.8c-1.6,6.9-4.7,13.3-7.8,19.6c0,0,0,0,0,0c-0.2,0.1-0.3,0.3-0.5,0.4c-1.1-0.2-2.2,1.2-3.4,0.1
		c0.4-0.7,0.8-1.4,1.1-2.1c1.2-2.8,0.7-4.4-1.8-6C448,52.7,445.8,51.9,443.2,51.8z"/>
	<path class="st1" d="M443.2,51.8c2.5,0,4.8,0.9,6.9,2.2c2.6,1.6,3,3.2,1.8,6c-0.3,0.7-0.7,1.4-1.1,2.1c-0.5,0.4-0.9,0.8-1.6,1
		c-6.7,1.9-13.5,3.7-20,6.1c0.8-3.3,1.9-6.5,3.3-9.6C434.7,54.9,438,52,443.2,51.8z"/>
	<path class="st19" d="M365.5,246.7c-0.2,1.4-1,1.9-2.4,1.9C363.7,247.7,364.3,246.8,365.5,246.7z"/>
	<path class="st18" d="M532.1,202.8c-0.8,0.8-1.2,0.6-1.4-0.4C531.2,202.3,531.7,202.2,532.1,202.8z"/>
	<path class="st18" d="M489.6,72c-0.6,0.7-0.8,0.3-1-0.3C489,71.6,489.3,71.6,489.6,72z"/>
	<path d="M469.1,236.6c0.4,0,0.7,0.1,0.9,0.5C469.6,237.2,469.3,237.1,469.1,236.6z"/>
	<path d="M377.5,96.9c-0.2,0.1-0.4,0.2-0.5,0.3c0,0-0.1-0.1-0.1-0.2C377,97,377.2,96.9,377.5,96.9C377.4,96.8,377.5,96.9,377.5,96.9
		z"/>
	<path class="st20" d="M454.3,62c0.2-0.1,0.3-0.3,0.5-0.4C454.6,61.7,454.4,61.9,454.3,62z"/>
	<path class="st21" d="M470,70.1c0,0.1-0.1,0.1-0.1,0.2C470,70.3,470,70.2,470,70.1C470,70.1,470,70.1,470,70.1z"/>
	<path class="st2" d="M792.2,69.8c0.7,0.4,1,1,0.8,1.7c-0.8,0.1-1,0.7-1.3,1.3c-4.4,8.6-9.9,16.5-16.3,23.9
		c-9.2,10.6-19.7,19.6-31.7,26.9c-11.1,6.8-23,12.1-35.5,15.8c-11.7,3.4-23.6,5.3-35.7,5.7c-2.4,0.1-4.8,0.1-7.1,0.2
		c-2.6-4.8-4.8-9.9-7.9-14.4c5.2-0.8,9.5-3.2,12.8-7.3c2.7-3.4,5.2-6.9,7.4-10.7c1.1-1.9,1.9-4,3.6-5.5c0.4,0.2,0.9,0.4,1.3,0.7
		c7.4,4.5,17.8,0.5,20-7.9c0.8-3.3,0.6-6.6-0.4-9.9c0-0.2,0.1-0.3,0.1-0.5c1.6-0.6,3.6-0.4,4.9-2l0.2,0l0.2,0
		c-0.1,0.9,0.4,1.5,0.8,2.2c4.8,7.4,11.7,10.8,20.5,10.8c9.6,0,13.6-6.4,12.1-15.9c0-0.2,0.1-0.4,0.1-0.5c1.3-0.1,2.6-0.3,3.9-0.4
		c2,9,7.1,11.1,14.9,6.2c5.5-3.4,10.2-7.8,14.7-12.4c1.6-1.7,3.1-3.6,3.5-6.1c0.1-0.2,0.1-0.4,0.2-0.6c0.9,0.1,1.7-0.1,2.6-0.3
		C784.6,69.7,788.4,69.3,792.2,69.8z M720.2,116.4c0,0-0.1,0-0.1,0c0-1,0.1-1.9,0-2.9c-0.5-3.3-2.4-5.4-5.4-5.2
		c-6.9,0.6-12.6,3.7-16.8,9.2c-1.2,1.5-1,3.2,0.1,4.9c2.7,4,8.7,6.1,14.2,5.2c4.6-0.7,6.6-2.4,7.8-7.9
		C720.2,118.7,720.1,117.5,720.2,116.4z M747.9,102.6c-4.5,0.5-9.8,2-14.2,5.7c-2,1.6-3.1,3.8-2.5,6.5c0.7,3,2.4,4.9,5.5,5.6
		c1.6,0.4,3,0,4.5-0.2c6.1-1.2,11-4,13-10.4C755.6,105.2,753.8,102.5,747.9,102.6z M683.8,136.1c0-3.3-2.4-5.5-5.9-5.4
		c-3.7,0.1-6.6,2.7-6.5,5.9c0.1,3,3.1,5.7,6.3,5.6C681,142.2,683.9,139.3,683.8,136.1z"/>
	<path class="st3" d="M665.5,145.2c2.4,0,4.8-0.1,7.1-0.2c12.1-0.4,24-2.2,35.7-5.7c12.5-3.7,24.4-9,35.5-15.8
		c11.9-7.3,22.4-16.4,31.7-26.9c6.4-7.3,11.8-15.2,16.3-23.9c0.3-0.6,0.5-1.2,1.3-1.3c0.4,5.2-2.1,9.5-4.5,13.8
		c-7.1,12.7-16.6,23.6-27.2,33.5c-19.1,17.6-41,30.5-65.9,38.3c-7.9,2.5-15.9,4.4-24,5.6C669.8,156.7,667.6,151,665.5,145.2z"/>
	<path class="st5" d="M590.8,308.7c0.8-1,1.8-1.1,3-0.7c10,2.8,18.7,7.7,25.4,15.9c1,1.3,0.6,2.2-0.1,3.1c-4,4.9-8.5,9.3-13.7,13.1
		c-8.8,6.5-18.6,10.8-29.2,13.2c-4.4,1-8.9,1.3-13.4,1.7c-1.1,0.1-2,0-2-1.5c-0.3-5.9-3.2-10.6-6.8-15.1c-3.8-4.7-8.3-8.4-13.2-11.8
		c-0.4-0.3-0.9-0.7-1.7-1.4c3.3-0.6,6.1-1.2,8.8-1.7c4,5.4,8.8,9.9,14.5,13.5c4,2.5,8.2,3.9,13.1,2.8c10.1-2.3,19.1-6.2,24.6-15.7
		c1.3-2.3,1.9-4.6,0.6-7c-0.9-1.5-2-3-3.6-4.1C594.9,311.6,592.8,310.2,590.8,308.7z"/>
	<path class="st5" d="M343.5,308.3c3.4,0.8,6.8,1.6,10.3,2.5c-2.6,4-5.3,7.8-7.3,12c-1.8,3.8-3.6,7.6-4.1,11.8
		c-0.2,1.7-0.8,2.3-2.7,1.8c-13.8-3.8-27.7-7.2-41-12.8c-8.4-3.5-16.3-7.8-23.1-13.9c-1.1-0.9-1.9-2.1-2.8-3.2
		c-0.5-0.6-0.5-1.3-0.2-2c2.4-6.6,6.7-11.6,12.5-15.4c1.1-0.7,2.2-1,3.2,0c1,0.9,2.5,1,3.2,2.3c-3.5,0.6-6.1,2.8-7.9,5.6
		c-1.9,2.9-2.3,6.1,2,8.3c1.9,1,3.8,2,5.7,2.9c6.1,2.7,12,5.7,18.4,7.8c5,1.6,10,3.1,15.2,3.5C333.4,320.2,340.7,318,343.5,308.3z"
		/>
	<path class="st5" d="M538.8,327.8c0.8-0.1,1.6,0.2,2.2,0.7c5.7,4.8,11.5,9.5,15.3,16.1c1.7,2.8,2.4,5.8,2.9,9
		c0.2,0.9-0.1,1.7-1.3,1.9c-9.8,2.4-19.6,4.2-29.6,5.4c-12.7,1.5-25.4,1.8-38.2,1.9c-2.6,0-2.8-0.7-2.6-3c0.7-9.4-0.5-18.5-3.7-27.4
		c-1.5-4.3-1.2-3.5,2.7-3.6c0.7,0,1.4,0,2.1,0c-0.3,1.3,0.2,2.5,0.5,3.7c0.8,4.2,1.8,8.4,4.5,11.9c3.5,4.5,8.6,5.7,14,5.8
		c5.1,0.1,10.1,0.2,15.2-0.4c6-0.7,12.1-1.5,17.9-3.1c5.5-1.5,6.4-3.8,4.3-8.9C543.4,334.2,540.9,331.1,538.8,327.8z"/>
	<path class="st5" d="M643.2,256.7c0.3-0.4,0.6-0.8,0.8-1.2c1.9-3.2,2.9-3.8,6.6-3c5.4,1.1,10.5,3.1,14.9,6.5c0.9,0.7,1.2,1.4,1,2.4
		c-0.7,5.6-2.3,11-4.6,16.1c-3.8,8.6-9.4,16.1-15.6,23.1c-7.1,8.1-15.2,15.2-23.3,22.3c-1.3,1.1-2.1,1.2-3.2-0.4
		c-3.1-4.5-7.3-7.7-12-10.2c-4.1-2.3-8.3-4.5-13.4-5.8c2.5-1.3,4.2-3.2,6.8-3.5c0.7,0,1.1,0.5,1.6,0.8c4.6,3.2,9.8,4.3,15.2,3.2
		c5-1,9.6-3.4,13.7-6.3c7.5-5.1,13.8-11.4,18.4-19.3c3-5.2,4.7-10.9,5.1-16.9c0.2-2.4-0.9-3.7-2.8-4.7
		C649.5,258.3,646.4,257.5,643.2,256.7z"/>
	<path class="st4" d="M643.2,256.7c3.1,0.8,6.3,1.6,9.2,3.2c1.9,1,3,2.4,2.8,4.7c-0.4,6-2.1,11.7-5.1,16.9
		c-4.5,7.9-10.9,14.2-18.4,19.3c-4.2,2.9-8.8,5.3-13.7,6.3c-5.3,1-10.6,0-15.2-3.2c-0.5-0.4-0.9-0.9-1.6-0.8c1.8-2.8,4.8-4,7.3-5.9
		c12.6-9.8,22.9-21.6,31.4-35C641,260.3,642.1,258.5,643.2,256.7z M618.6,293c11-4,22-17.8,24-29.7
		C635.5,274.3,628.1,284.6,618.6,293z"/>
	<path class="st4" d="M538.8,327.8c2.1,3.3,4.6,6.4,6.2,10.1c2.1,5.2,1.2,7.5-4.3,8.9c-5.9,1.6-11.9,2.4-17.9,3.1
		c-5.1,0.6-10.1,0.4-15.2,0.4c-5.4-0.1-10.4-1.3-14-5.8c-2.7-3.4-3.7-7.6-4.5-11.9c-0.2-1.2-0.8-2.4-0.5-3.7c6.3,0,12.5,0,18.8-0.1
		c8.5-0.1,16.9-1.3,25.2-2.6C535.1,325.8,537.2,325.5,538.8,327.8z M536,330.8c-13.6,2.3-27.3,3.9-41.5,2.8
		C504.6,338.7,524.7,337.8,536,330.8z M537.2,330.5c0.1,0,0.1,0.1,0.2,0.1c0,0,0-0.1,0.1-0.1c-0.1,0-0.1-0.1-0.2-0.1
		C537.2,330.3,537.2,330.4,537.2,330.5z"/>
	<path class="st4" d="M590.8,308.7c2.1,1.4,4.1,2.9,6.2,4.3c1.6,1,2.7,2.5,3.6,4.1c1.3,2.3,0.7,4.7-0.6,7
		c-5.5,9.5-14.5,13.4-24.6,15.7c-4.9,1.1-9-0.3-13.1-2.8c-5.7-3.6-10.5-8.1-14.5-13.5c6.8-1.7,13.7-3.3,20.4-5.6
		c7.3-2.5,14.5-5.2,21.3-8.9C589.8,308.8,590.3,308.8,590.8,308.7z M553,324.6c15.2,2.9,31.9-5.7,36.3-11.7
		C577.5,318.3,565.6,322.7,553,324.6z"/>
	<path class="st4" d="M343.5,308.3c-2.8,9.8-10.1,11.9-18.6,11.3c-5.2-0.4-10.2-1.9-15.2-3.5c-6.4-2.1-12.3-5-18.4-7.8
		c-1.9-0.9-3.8-1.9-5.7-2.9c-4.3-2.2-3.9-5.4-2-8.3c1.8-2.8,4.4-5,7.9-5.6c4,1.6,8,3.3,12.1,4.9c12.3,4.7,25,8.2,37.7,11.4
		C342.2,307.9,342.9,308.1,343.5,308.3z M290.6,296.9c9.8,9.9,29.7,13.8,41.2,12.4C317.4,306.9,303.7,302.9,290.6,296.9z"/>
	<path class="st5" d="M279.7,282.5c1.3,1.1,2.7,2.2,4.1,3.3c1.2,0.9,1.2,1.6-0.1,2.5c-5.8,3.7-10,8.7-12.1,15.3
		c-0.4,1.3-1.1,1.4-2.1,0.8c-2.5-1.4-4.5-3.4-6-5.7c-7.8-11.7-10.5-24.8-9.5-38.7c0.4-5.4,1.7-10.8,4.6-15.5
		c1.4-2.2,3.4-3.7,5.8-4.7c1.3-0.5,2-0.3,1.9,1.3c-0.1,1.1-0.1,2.2-0.1,3.3c-1.2,0.2-1.6,1.3-2.1,2.1c-6,11.7-6.5,23.5,0.1,35.2
		c2.7,4.8,7.5,6,12.1,3C277.5,283.9,278.6,283.2,279.7,282.5z"/>
	<path class="st4" d="M650,243.8c3.9-8.8,6.5-18,8.2-27.5c1.2-6.6,2.1-13.3,2.3-20c0-1-0.1-2.1,0.4-3c6.4,1.1,8.9,6,10.4,11.3
		c1.3,4.6,1.3,9.3,0.7,14.1c-1.1,8.8-3,17.3-8.3,24.6c-2.1,2.9-3.8,3.5-7.3,2.6C654.2,245.3,652.2,244,650,243.8z M663,202
		c-0.7,6.3-1.3,12.2-2.5,18.2c-1.2,6-2.9,11.9-5.2,18.1C662.3,233.7,667.1,210.1,663,202z"/>
	<path class="st5" d="M650,243.8c2.2,0.3,4.2,1.5,6.3,2.1c3.5,1,5.2,0.4,7.3-2.6c5.3-7.4,7.2-15.8,8.3-24.6
		c0.6-4.8,0.6-9.5-0.7-14.1c-1.5-5.4-4-10.3-10.4-11.3c0-3.1,1.5-4.4,4.7-3.7c2.2,0.5,4.4,1.3,6.6,2c1.6,0.5,2,1.9,2.5,3.2
		c1.2,3.2,1.6,6.6,1.9,10c1.6,14.8-0.6,29.2-5.3,43.3c-1,2.9-2.2,5.8-3.3,8.7c-0.4,1.1-0.8,1.7-2.2,0.7c-4.8-3.5-10.1-5.9-16.1-6.4
		c-2.8-0.2-2.8-0.5-1.6-3C648.9,246.6,649.4,245.2,650,243.8z"/>
	<path class="st4" d="M279.7,282.5c-1.1,0.7-2.3,1.5-3.4,2.2c-4.7,3-9.4,1.9-12.1-3c-6.6-11.7-6.1-23.4-0.1-35.2
		c0.4-0.8,0.9-1.9,2.1-2.1c-1.1,7.8,0.6,15.2,3.3,22.5C271.8,272.8,275.8,277.6,279.7,282.5z"/>
	<path class="st4" d="M661,184.1c-0.3-5.3-0.2-10.6-0.5-15.9c-0.7-11.4-2.2-22.7-4.1-33.9c-0.1-0.5-0.2-1.1-0.3-1.6
		c0-0.2,0.1-0.4,0.2-0.9c1.6,1.5,2.4,3.3,3.3,5c4.9,9.1,8.7,18.6,11,28.8c0.3,1.6,0.3,3.1,0.4,4.7c-0.1,1.9-0.3,3.8-0.5,5.6
		C669.8,182.4,667.6,184.4,661,184.1z M660,144.6c2,10.7,2.9,21.5,2.2,33C666,170.3,665.8,153.5,660,144.6z"/>
	<path class="st0" d="M681.4,107.3c-1.7,1.5-2.5,3.6-3.6,5.5c-2.2,3.8-4.7,7.3-7.4,10.7c-3.3,4.1-7.7,6.4-12.8,7.3
		c-0.7-1.1-1.8-2-2-3.4c6.4-1.2,11.1-4.9,14.7-10.1c2.5-3.6,4.7-7.3,7.1-11c0.5-0.8,0.8-1.7,1.7-2.2c0.5,1.2,1.3,2.1,2.4,2.9
		C681.4,107.1,681.4,107.2,681.4,107.3z"/>
	<path class="st5" d="M661,184.1c6.6,0.3,8.8-1.7,9.5-8.2c0.2-1.9,0.4-3.7,0.5-5.6c1.9,1.6,1.4,4,1.7,6c0.6,3.9,0.8,7.8,0.7,11.8
		c-0.1,1.5-0.4,1.9-2,1.4c-3-1.1-6.1-2.1-9.4-1.2c-0.9,0.2-1-0.5-1-1.2C660.9,186.2,661,185.1,661,184.1z"/>
	<path class="st7" d="M741.2,84.4c0,0.2-0.1,0.4-0.1,0.5c-8.3-0.1-16.6,0.3-24.8,1.5c-2.9,0.4-5.7,1.3-8.6,1.4l-0.2,0
		c0,0-0.2,0-0.2,0c-0.3-1-0.7-2-1-2.9c4.4-1.4,8.9-1.8,13.4-2.3c7.1-0.8,14.2-0.2,21.2-1.5C741,82.2,741.1,83.3,741.2,84.4z"/>
	<path class="st7" d="M681.4,106.9c-1-0.7-1.8-1.7-2.4-2.9c4.4-8.2,11.3-13.5,19.8-16.9c0.7-0.3,1.4-0.4,2.1-0.3
		c1,0.8,0.7,2.1,1.5,2.9c0,0.2-0.1,0.3-0.1,0.5c-2.1-0.1-3.7,1.2-5.4,2.1C690.4,95.8,685.1,100.5,681.4,106.9z"/>
	<path class="st7" d="M778.4,71.1c-0.1,0.2-0.1,0.4-0.2,0.6c-4.3,0.9-8.2,2.8-12.2,4.3c-6.9,2.6-13.5,5.7-20.6,7.5
		c-0.1-1.1-0.1-2.3,0.3-3.4c3.8-1.9,7.9-2.7,11.8-4.2c6.8-2.5,13.6-5.2,20.8-6.8C778.3,69.8,778.3,70.4,778.4,71.1z"/>
	<path class="st0" d="M778.4,71.1c0-0.6-0.1-1.3-0.1-1.9c3.4-1.3,7-1.7,10.6-1.2c1.2,0.2,2.7,0.3,3.3,1.8c-3.8-0.5-7.6-0.1-11.3,1
		C780.1,71,779.2,71.2,778.4,71.1z"/>
	<path class="st0" d="M702.4,89.8c-0.8-0.8-0.5-2.2-1.5-2.9c1.3-1.8,3.5-1.6,5.3-2c0.3,1,0.7,2,1,2.9C706,89.4,704,89.2,702.4,89.8z
		"/>
	<path class="st0" d="M745.6,80.1c-0.4,1.1-0.4,2.2-0.3,3.4c-0.1,0.1-0.1,0.3-0.2,0.4c-1.3,0.1-2.6,0.3-3.9,0.4
		c-0.1-1.1-0.2-2.2-0.3-3.3C742.4,80.5,744,79.9,745.6,80.1z"/>
	<path class="st1" d="M180.5,270.1c-0.1,0.3-0.2,0.6-0.3,0.9c-1.6,0.6-2.6,2-3.9,3.1c-4.7,4-10.3,5.5-16.1,6.4
		c-4.9,0.8-9.8,0.7-14.6-0.5c-9.2-2.3-13.1-9.7-9.8-18.6c3.1-8.3,8.2-15.3,13.9-22c1.1,0.1,1.6,0.9,2.3,1.6
		c6.3,6.4,12.6,12.7,18.7,19.3c2.6,2.9,5.6,5.4,7.8,8.6C179,269.6,179.6,270.1,180.5,270.1z"/>
	<path class="st1" d="M141.9,230.5c-0.1,0.3-0.2,0.6-0.3,0.9c-4.1,1.6-7.8,3.9-11.9,5.3c-6.4,2.3-12.9,3.9-19.7,3.8
		c-2.3,0-4.6-0.5-6.7-1.4c-4-1.7-5.8-4.9-6.1-9.2c-0.5-8,2.9-14.8,6.6-21.5c1.1-2,2.2-4,3.9-5.6c3.6,2,6.6,4.8,9.8,7.3
		c7.6,5.8,14.8,12.1,21.7,18.8C140.1,229.6,140.9,230.2,141.9,230.5z"/>
	<path class="st1" d="M187.1,279.2c1.1,0,1.7,0.9,2.3,1.6c5.2,5.9,10.5,11.6,16.1,17.1c2.7,2.6,5.5,5,8.5,7.2
		c0.5,0.4,0.9,0.9,1.3,1.4c-3.4,3.5-7.8,5.1-12.2,6.6c-6.8,2.3-13.8,3-20.8,0.9c-7.3-2.1-9.4-6.4-7.2-13.6
		C177.4,292.3,182.1,285.6,187.1,279.2z"/>
	<path class="st1" d="M157.7,324.6c-8.5-0.3-15-2.2-20.9-6c-4.8-3.1-6.3-7.1-4.8-12.7c2.1-8,9.7-14,17.5-14c2.8,0,5.1,1.2,7,3.1
		c5.3,5.3,8.2,11.8,9,19.2C166.2,320.5,164.4,325.2,157.7,324.6z"/>
	<path class="st1" d="M97.4,195.2c0,0.3,0.1,0.6,0.1,0.9c-2.2,2.9-3.8,6.3-6.9,8.6c-6.1,4.4-12.7,5.8-20,4.4
		c-6.5-1.3-10.3-5.2-11.2-11.9c-0.8-6.5-0.8-13.1-0.9-19.7c7,1.8,13.7,4.4,20.2,7.5C85.1,188,91.1,191.8,97.4,195.2z"/>
	<path class="st1" d="M108.1,252.9c8.7,0,15.4,5.2,16.7,13.6c1.3,8.5-6.5,17.9-16.6,16.4c-8-1.2-13.6-5.9-16.1-13.8
		c-1.7-5.5-0.1-9.9,4.8-12.9C100.3,253.9,104.1,252.7,108.1,252.9z"/>
	<path class="st1" d="M219.6,345c-5.1,0.3-9.1-1.1-12.9-3.2c-6.4-3.5-6.5-11.2-0.1-14.9c6.5-3.7,13.5-3.8,20.3-0.7
		c4.1,1.8,5.8,6.1,4.8,10.6c-0.9,4.3-4.9,7.7-9.5,8.1C221.2,345.1,220.1,345,219.6,345z"/>
	<path class="st1" d="M82.9,251c-6.3-0.7-12.7-3.1-17.5-8.7c-2.5-3-2.4-6.2,0.1-9.3c3.8-4.7,11.4-8.2,18.5-2.2
		c2.9,2.5,5.4,5.3,7.1,8.9C94,246.1,90.9,251,82.9,251z"/>
	<path class="st1" d="M39.7,202.7c4.3,0.3,9.8,1.6,14.1,5.9c2.8,2.8,3.3,6.1,2,9.7c-1.4,3.6-4.3,5.3-8.2,5.5
		c-7.7,0.3-13.9-3.1-16.6-9.1c-0.8-1.8-1.3-3.6-1.2-5.5C30.3,204.2,32.4,202.7,39.7,202.7z"/>
	<path class="st1" d="M191.2,351.7c-1.7,2.1-4.1,2.9-6.7,3.2c-5.8,0.6-11.6,0.3-17.1-2c-5-2.1-5.6-4.5-2.6-8.9
		c0.1-0.2,0.2-0.4,0.3-0.7c0.9-0.1,1.5-0.8,2.2-1.3c3.9-2.7,8.1-4.2,13.1-3.8C186.8,338.7,191.9,346,191.2,351.7z"/>
	<path class="st1" d="M67.9,251.5c6.2,0,11.4,5.4,10.8,11.3c-0.3,2.5-1.4,3.7-3.9,3.4c-5.4-0.6-10.3-2.4-14.4-6.1
		c-2.3-2-2.2-3.7-0.1-5.8C62.3,252.3,64.7,251.5,67.9,251.5z"/>
	<path class="st1" d="M106.5,292c4.8-0.1,9,2.9,10.4,6.8c1,2.7-0.8,5.6-3.6,5.7c-6.1,0.2-11-2.6-15.3-6.5c-1.5-1.3-1-3,1-4
		C101.5,292.7,104.3,292.1,106.5,292z"/>
	<path class="st2" d="M349.7,448.6c-0.9-3.5-0.6-7.1-0.3-10.6c0.9-8.7,3.1-17.2,6.5-25.3c0.4-0.2,0.5-0.6,0.5-1c0,0,0,0,0,0
		c0.2-0.3,0.5-0.6,0.7-0.9c2.7-4.7,5.8-9.1,10.2-12.6c6.3-5,14.6-4.6,20,1.3c0.3,0.4,0.6,0.7,1.1,0.7c0,0,0,0,0,0
		c0,0.5,0.1,0.9,0.7,1c3.1,5.7,5,11.8,6,18.2c0.4,2.4,0.7,4.8,0.9,7.2c0.1,0.8,0.2,1.6-0.3,2.3c-0.2-0.6-0.4-1.2-0.6-1.8
		c-1.2-5.4-2.8-10.6-6-15.1c-4-5.6-9.5-7.5-16.1-5.4c-7.7,2.5-12.4,8.3-16.1,15C352.4,430.1,350.6,439.2,349.7,448.6z"/>
	<path d="M349.7,448.6c0.9-9.4,2.7-18.5,7.3-26.9c3.7-6.7,8.4-12.5,16.1-15c6.6-2.1,12-0.3,16.1,5.4c3.3,4.6,4.8,9.8,6,15.1
		c0.1,0.6,0.4,1.2,0.6,1.8c0,0.3,0,0.5,0.1,0.8c-0.1,0.6-0.2,1.1,0.3,1.5c0,0.3,0,0.6,0,0.9c0,0.2,0,0.4,0.1,0.5
		c0,0.6,0.1,1.3,0.1,1.9c0,0.1-0.1,0.1-0.1,0.2c0,0.1,0.1,0.2,0.2,0.3c0.5,8.5,0.4,17-1.9,25.3c-2.5,9.2-7.8,15.7-17.6,17.7
		c-11.3,2.2-21.8-4.1-25.4-15.1c-1.1-3.3-1.6-6.8-1.9-10.3c0-0.3,0-0.7-0.1-1c0-0.5,0-0.9,0-1.4c0-0.2,0-0.4,0-0.6
		C349.7,449.5,349.7,449,349.7,448.6z M395,449.5c0.9-8.9,0.1-17.6-2.5-26.1c-1.1-3.6-2.6-7-5.1-9.9c-3.4-4.2-7.7-5.6-13-4.3
		c-4.6,1.2-8.5,3.7-11.4,7.3c-9.6,12-13,25.9-11.2,41.1c0.1,2.1,0.7,4.1,1.4,6c3.3,8.2,9.4,13,18.2,13.5c8.7,0.5,15.4-3.3,19.5-11.1
		C393.6,460.9,394.6,455.3,395,449.5z"/>
	<path class="st1" d="M400.8,369.4c-7.6,0.1-8.8-4.5-7.9-10.6c0.3-1.8,1-3.5,2.1-5c2-2.9,4.5-5,8.3-4.5c3.6,0.4,5.5,3,6.9,5.9
		c1.2,2.3,1.4,4.9,1.2,7.4c-0.2,2.3-1.7,3.7-3.5,4.8C405.7,368.8,403.2,369.5,400.8,369.4z"/>
	<path class="st1" d="M443.4,363.7c-2.5,0.3-4.4-0.8-6.2-2.5c-2.5-2.4-4.5-5.1-5.5-8.5c-1.2-4,0.4-6.1,4.6-6.3c5-0.2,9,2.2,12.9,4.8
		c1.5,0.9,2.9,2,4.2,3.2c1.9,1.7,2,3.6,0.2,5.4C450.7,362.5,447.2,363.5,443.4,363.7z"/>
	<path class="st1" d="M456.2,383c-0.1,3.7-0.2,7-2.5,9.6c-2.4,2.6-6.1,2.3-7.7-0.9c-2.9-5.8-3.7-12.1-2.4-18.5
		c0.3-1.8,1-3.7,3.2-3.9c2.7-0.3,5.5-0.2,7.1,2.6C456,375.5,456,379.5,456.2,383z"/>
	<path class="st1" d="M416.1,388.5c0,2.2-0.5,4.2-1.6,6.1c-2,3.5-6.4,3.9-8.9,0.6c-2.2-2.9-3.1-6.4-3.7-9.9
		c-0.3-1.7-0.4-3.4-0.3-5.2c0.4-5.5,5.4-5.8,8.8-3.8c2.7,1.6,4,4.2,4.9,7C415.8,385,416.1,386.7,416.1,388.5z"/>
	<path class="st1" d="M375.1,340.7c0.3-0.3,0.5-0.7,0.8-1c3.2,0.3,6.2-0.9,9.3-1c2.7-0.1,5.3-0.5,7.9-0.8c0.1,0,0.3,0.1,0.4,0.2
		c3.1,9.9-7,16.8-15.2,15c-2.6-0.6-4.2-2.7-4.1-5.9C374.3,345,374.8,342.8,375.1,340.7z"/>
	<path class="st1" d="M428,393.6c0-3.9,5.2-7.3,8.8-5.7c1.7,0.8,3,3.2,2.6,5.4c-0.4,2.4-1.2,4.7-2.6,6.8c-0.8,1.3-1.9,1.4-3.1,1.1
		C431.2,400.5,428,396.3,428,393.6z"/>
	<path class="st1" d="M423.2,408c-0.1,2.3-1.2,5-2.9,7.4c-1.7,2.3-4.5,2.6-7,0.9c-2.2-1.5-2.7-4-1-6.5c1.5-2.3,3.4-4.3,6-5.6
		C421.6,402.7,423.3,403.7,423.2,408z"/>
	<path class="st1" d="M449.6,417.3c0.1,2.2-0.5,4.3-2.9,5.3c-2,0.8-5-0.7-6.5-2.9c-1.6-2.4-1.5-5.5,0.2-7.5c1.5-1.8,3.9-2.3,6-1.4
		C448.5,411.7,449.6,413.9,449.6,417.3z"/>
	<path class="st1" d="M434.3,377.7c0,3-1.8,4.8-4.9,4.9c-3.5,0.1-6.1-2.5-6.1-6.1c0-3.5,1.7-5.6,4.7-5.7
		C431.4,370.7,434.2,373.8,434.3,377.7z"/>
	<path class="st3" d="M388.5,400.3c-0.5,0-0.8-0.4-1.1-0.7c-5.4-6-13.7-6.4-20-1.3c-4.4,3.5-7.4,7.9-10.2,12.6
		c-0.2,0.3-0.5,0.6-0.7,0.9c0.1-0.7-0.1-1.5,0.2-2.1c3.7-7.2,8.3-13.4,16.5-15.8c5.4-1.6,10.2-0.4,14,3.9
		C387.8,398.6,388.4,399.3,388.5,400.3z"/>
	<path class="st3" d="M474.4,397c-0.3,0.6-0.8,0.4-1.2,0.2c-4.1-2.5-8.4-2.7-12.7-0.6c1.2-2.4,4.4-3.5,7.9-2.6
		C470.7,394.4,472.7,395.4,474.4,397z"/>
	<path class="st2" d="M396.1,431.4c-0.5-0.4-0.4-1-0.3-1.5C396.6,430.2,396.7,430.7,396.1,431.4z"/>
	<path class="st2" d="M349.7,451.8c0,0.3,0,0.7,0.1,1C349.3,452.5,349.3,452.2,349.7,451.8z"/>
	<path class="st3" d="M389.1,401.3c-0.5-0.1-0.7-0.5-0.7-1C388.7,400.6,388.9,401,389.1,401.3z"/>
	<path class="st3" d="M356.4,411.8c0,0.4-0.1,0.8-0.5,1C356,412.4,356,411.9,356.4,411.8z"/>
	<path class="st2" d="M396.5,435.2c-0.1-0.1-0.2-0.2-0.2-0.3c0,0,0-0.1,0.1-0.2C396.4,434.9,396.5,435,396.5,435.2z"/>
	<path class="st2" d="M396.2,432.8c0-0.2,0-0.4-0.1-0.5c0.1,0.1,0.1,0.2,0.2,0.4C396.3,432.7,396.3,432.8,396.2,432.8z"/>
	<path class="st2" d="M349.7,449.9c0,0.2,0,0.4,0,0.6c0-0.1-0.1-0.3-0.1-0.4C349.5,450,349.6,450,349.7,449.9z"/>
	<path class="st2" d="M460.5,396.5c-0.2,0.2-0.5,0.3-0.7,0.5C460,396.8,460.2,396.7,460.5,396.5z"/>
	<path class="st20" d="M336.4,383.7c0.1-0.1,0.1-0.1,0.2-0.2c0,0,0,0.1,0,0.1C336.5,383.6,336.5,383.6,336.4,383.7
		C336.4,383.6,336.4,383.7,336.4,383.7z"/>
	<path class="st22" d="M434.2,329.8c13.8,2.3,27.7,2.9,41.7,1.9C467,337.1,441.8,336,434.2,329.8z"/>
	<path class="st4" d="M433,329.5c-0.1,0-0.2,0.1-0.3,0.1c0,0,0-0.1-0.1-0.1C432.8,329.5,432.9,329.5,433,329.5z"/>
	<path class="st22" d="M365.3,318.2c13.4,4.1,27.2,6.4,41.1,7.5C392,327.4,378.1,326.3,365.3,318.2z"/>
	<path class="st23" d="M97.8,194.7c-0.1,0.2-0.2,0.3-0.2,0.5C97.6,195,97.7,194.9,97.8,194.7z"/>
	<path class="st24" d="M448.5,445.2c0.9-0.1,1.5,0.3,2.1,0.8c2.5,2.4,3.4,5.3,2.7,8.6c-0.5,2.7-2.8,3.4-4.9,1.6
		c-2.2-1.9-3.2-7.1-2-9.7C446.9,445.6,447.5,445.1,448.5,445.2z"/>
	<path class="st1" d="M731,327.3c0-0.1,0.1-0.3,0.2-0.4c5.5-0.8,11-1.7,16.6-2.5c8-1,15.8-2.7,23.7-4.2c1.5-0.3,2.8-1.2,4.4-0.9
		c2,7.6,3.9,15.2,4.4,23.1c0.9,13.5-9,23.4-21.2,25.5c-5.7,1-11.1,0.4-15.8-3.3c-3-2.4-4.6-5.9-5.9-9.4c-3.1-8-4.6-16.5-5.8-25
		C731.4,329.3,731.1,328.3,731,327.3z"/>
	<path class="st1" d="M665.8,343.1c4-1.3,8-2.7,12.1-4c11.8-3.7,23.9-6.5,36-8.9c0.3-0.1,0.6,0,0.9,0c1.1,5.6,1.2,11.2,0.3,16.7
		c-1.1,7.5-3.7,14.3-8.9,19.9c-7.3,7.9-16.4,12.1-27.2,12c-3.8,0-5.8-2.9-7.5-5.8c-3.3-5.9-4.7-12.4-5.4-19.1
		c-0.4-3.5-0.4-7-0.6-10.4C665.6,343.4,665.7,343.2,665.8,343.1z"/>
	<path class="st1" d="M791,315c3.2-1.8,6.8-2.5,10.1-3.8c7.4-2.7,14.8-5.6,22-8.7c5.2-2.2,10.4-4.4,15.6-6.6
		c2.7,11.9,2.9,23.6-4.2,34.1c-8.3,12.2-24,14.1-35,1.6C795.4,326.8,792.6,321.2,791,315z"/>
	<path class="st6" d="M849.7,291c0-0.3,0-0.6,0-0.9c1,0.1,1.8-0.4,2.7-0.8c10.3-4.9,20.5-9.8,31.1-14c2.4-1,4.8-2.1,7.4-2.4
		c1.2,1.4,1,3.2,1.1,4.8c0.7,8.4,0.8,16.8-3,24.7c-3.8,7.9-11.1,10.7-19.2,7.5c-6.7-2.6-11.8-7.3-16.1-13
		C852.3,295,851.1,293,849.7,291z"/>
	<path class="st1" d="M740.2,387c-0.3,9.9-8.3,17.7-19.8,16.5c-5.3-0.6-10.2-2.5-14-6.5c-7-7.4-4.7-19,5-22.4
		c9.1-3.2,17.8-2.2,25.4,4.5C739.2,381.2,740.3,384.1,740.2,387z"/>
	<path class="st1" d="M780.1,389.9c-7.7,0.4-9.6-3.4-8.9-10.3c0.4-4,2.1-7.7,4.2-11.2c4.9-7.9,17.2-9.2,23.8-5.2
		c5,3,6.4,10.2,3,15.7c-2.1,3.4-5.1,5.6-8.5,7.5C790.1,388.4,784.4,389.9,780.1,389.9z"/>
	<path class="st1" d="M693.8,412.8c-1.4,2.1-2.6,4.3-4.9,5.7c-3.5,2.2-7.7,2-10.8-0.6c-2.2-1.9-4.2-3.9-5.4-6.5
		c-0.3-1.5-0.9-2.8-1-4.4c-0.2-2.5,1.1-4.1,3.1-5.1c4.5-2.2,9.3-2.7,14.1-1.5c5,1.2,6.9,4.7,5.5,9.7
		C694.2,410.9,694,411.8,693.8,412.8z"/>
	<path class="st1" d="M828.1,362.2c-3.6,0.2-6.8-0.8-9.7-2.9c-2-1.4-2.6-3.4-1.8-5.7c2.9-8.6,15.8-11.7,22.1-5.2
		c3.4,3.4,3,8-0.9,10.9C835,361.5,831.7,362.4,828.1,362.2z"/>
	<path class="st1" d="M649.6,369.4c2.7,0.3,5.4,0.6,7.9,2.1c2.1,1.2,2.9,3,2.2,5.2c-1.8,5.4-5.8,9-10.7,11.6c-0.4,0.2-1.1,0.2-1.6,0
		c-4.4-1.8-7.9-4.5-9.4-9.2c-1.2-3.7,0.4-6.7,4.1-8.2c1-0.4,2.1-0.8,3.2-1C646.7,369.6,648.2,369.5,649.6,369.4z"/>
	<path class="st1" d="M856.7,339.3c-3.9,0-6-2.9-5.1-6.6c1.3-5.3,5.2-7.7,10.1-8.9c1.9-0.5,3.9-0.8,5.8-1.2c2.9-0.6,4.1,0.7,3.7,3.6
		c-0.7,5.2-4.1,8.4-8.3,10.9C860.8,338.3,858.6,339.2,856.7,339.3z"/>
	<path class="st1" d="M424.3,46.2c0.2,1.9-0.5,3.7-2,5c-3.9,3.4-8.4,5.3-13.7,4.2c-5-1-7.2-6-4.9-10.5c2.7-5.3,10.6-8.3,16-5.7
		C422.4,40.5,424.5,42.6,424.3,46.2z"/>
	<path class="st1" d="M411.8,66.5c0,2.7-1.3,4-2.8,5.1c-2.8,2.1-5.8,4.2-8.8,6.1c-1.7,1.1-3.7,2.5-5.7,1.1c-2.2-1.5-2.3-4.1-2.1-6.5
		c0.2-3.5,2.3-6,5.6-7.3c3.7-1.4,7.4-2.3,11.3-1.1C410.9,64.5,411.8,65.5,411.8,66.5z"/>
	<path class="st22" d="M601.3,143.1c-5.2-1.5-10.5-3.1-15.7-4.5c-7.8-2.1-15.7-3.3-23.8-4.2c-12.1-1.3-23.9,0.2-35.4,4
		c-7.9,2.6-15.5,6-22.7,10.3c-0.3,0.2-0.5,0.3-1.2,0.6c0.5-2,1.9-2.9,3.1-3.9c7-6,14.3-11.5,22.7-15.6c8.1-4,16.6-5.9,25.6-4.9
		c8,1,15.6,3.4,23.1,6.2c7.9,3,15.5,6.5,22.8,10.6C600.4,142.3,601,142.5,601.3,143.1L601.3,143.1z"/>
	<path class="st18" d="M601.2,143.2c0.2,0.1,0.4,0.1,0.6,0.2C601.5,143.8,601.4,143.4,601.2,143.2
		C601.3,143.1,601.2,143.2,601.2,143.2z"/>
	<path class="st22" d="M354.6,272c1.9-4.2,4.9-7.5,7.6-11.1c4.1-5.4,8.6-10.4,13.5-15c7.4-6.8,15.3-12.8,25.2-15.7
		c4.7-1.4,9.6-2,14.5-2.2c13.5-0.4,26.5,2,39.1,6.8c3,1.1,6.1,2.2,9,4.7c-3.8-0.1-7-0.7-10.1-1.1c-9.8-1.1-19.6-1.5-29.4-1.3
		c-8.3,0.2-16.5,0.5-24.3,3.6c-7.5,3-14.1,7.6-20.6,12.3c-8,5.8-15.8,12-23.3,18.4C355.4,271.7,355.1,272,354.6,272L354.6,272z"/>
	<path class="st25" d="M354.5,272c-0.1,0.2-0.1,0.4-0.2,0.6c-0.1,0-0.1-0.1-0.2-0.1C354.3,272.3,354.4,272.1,354.5,272
		C354.6,272,354.5,272,354.5,272z"/>
	<path class="st22" d="M476.2,227.6c1.4-3.2,4-5.3,6.4-7.5c6.8-6.2,14.8-10.3,23.8-12.2c5.8-1.2,11.5-0.3,17.1,1
		c11.6,2.7,22.5,7.2,33.3,12.1c9.3,4.2,18.3,8.8,27.2,13.6c0.7,0.4,1.7,0.5,2.1,1.7c-3.3-1.2-6.3-2.3-9.3-3.4
		c-15.3-5.6-30.9-10.7-46.8-14.2c-6.9-1.5-13.9-2.4-21-2.1c-10.5,0.5-20.3,3.3-29.2,9C478.8,226.3,477.7,227.4,476.2,227.6
		L476.2,227.6z"/>
	<path class="st25" d="M476.2,227.6c-0.1,0.1-0.2,0.1-0.2,0.2C476.1,227.7,476.1,227.7,476.2,227.6
		C476.2,227.6,476.2,227.6,476.2,227.6z"/>
	<path class="st22" d="M360.2,188.6c-9.2,2-18.4,4-27.5,6.5c-11.5,3.1-22.9,6.4-33.5,11.9c-11.6,6-17.9,15.7-19.7,28.5
		c-0.3,2.4-0.3,4.8-0.5,7.8c-1.3-2.8-1.7-5.2-2-7.7c-1.1-9.3,0.3-18.1,5.9-26c5.5-7.9,13.3-11.7,22.1-14.1
		c9.8-2.7,19.8-4.1,29.9-5.3C343.3,189.3,351.7,188.7,360.2,188.6z"/>
	<path class="st22" d="M413.7,207.6c-8.1-7.2-15.6-15.1-21.4-24.4c-4.4-6.9-2.9-12.3,1.8-18.2c10.7-13.4,25.1-20.8,41.6-24.3
		c8-1.7,16.1-2.2,24.3-1.7c-6.7,1.1-13.4,2.2-19.9,4c-10.4,2.9-20.4,6.6-28.9,13.5c-6,4.9-10.9,10.8-10.3,19.3
		c0.3,4.9,1.8,9.5,3.7,13.9c2.3,5.4,5,10.6,8.4,15.4C413.5,206,413.8,206.7,413.7,207.6L413.7,207.6z"/>
	<path class="st25" d="M414.2,208c0.1,0.1,0.1,0.1,0.2,0.2c0,0-0.1,0-0.1,0C414.2,208.2,414.2,208.1,414.2,208
		C414.2,208,414.2,208,414.2,208z"/>
	<path class="st25" d="M413.7,207.5c0.2,0.2,0.3,0.3,0.5,0.5c0,0,0,0,0,0C414,207.9,413.9,207.7,413.7,207.5
		C413.7,207.6,413.7,207.5,413.7,207.5z"/>
	<path class="st22" d="M450.5,121.7c-8.7-3.7-17.2-13.2-16.7-23.3c0.1-2.9,1.3-5.2,3.1-7.2c5-5.5,11.5-8.6,18.2-11.4
		c4.5-1.9,9.3-3.3,14.1-4.1c0.6-0.1,1.2-0.3,2.1,0c-2.6,1.2-5,2.3-7.5,3.3c-5.2,2.2-10,5.1-14.8,8.1c-10.6,6.5-10.5,15.9-5.3,25.3
		c1.6,2.9,3.6,5.6,6,7.9C450.1,120.6,450.5,121,450.5,121.7L450.5,121.7z"/>
	<path class="st25" d="M450.5,121.7c0.2,0.1,0.4,0.1,0.6,0.2c0,0.1-0.1,0.2-0.1,0.2C450.8,121.9,450.6,121.8,450.5,121.7
		C450.5,121.7,450.5,121.7,450.5,121.7z"/>
	<path class="st22" d="M397,107.3c-2.8,1.1-5.7,2.3-8.5,3.3c-9.5,3.7-19.1,7.2-28.4,11.6c-7,3.3-13.1,8-18.9,13.1
		c-7,6-13.2,12.8-19.1,19.9c-0.1,0.2-0.4,0.2-1.3,0.5c6.3-14.6,15.1-26.5,27.5-35.5c14.4-10.5,30.7-14.5,48.3-13.6
		C396.8,106.7,396.9,107,397,107.3z"/>
	<path class="st22" d="M602.2,79.7c-4.8-0.6-9.6-1.3-14.4-1.6c-6.2-0.5-12.5-0.9-18.6,1c-6.8,2.1-12.2,9.2-12.4,16.4
		c0,1.7,0,3.5,0,5.4c-3.2-5.9-4.2-16.2-0.6-21c2.3-2.9,5.3-4.5,8.7-5.4c11-3,21.5-1.1,31.8,2.8C598.7,78,600.6,78.4,602.2,79.7
		L602.2,79.7z"/>
	<path class="st18" d="M602.2,79.7c0.2,0.1,0.4,0.1,0.6,0.2C602.5,80.3,602.4,79.9,602.2,79.7C602.2,79.7,602.2,79.7,602.2,79.7z"/>
	<path class="st1" d="M707.7,87.8c2.9-0.1,5.7-1,8.6-1.4c8.2-1.2,16.5-1.6,24.8-1.5c1.5,9.4-2.5,15.9-12.1,15.9
		c-8.8,0-15.7-3.4-20.5-10.8C708,89.3,707.5,88.7,707.7,87.8z"/>
	<path class="st1" d="M720.2,116.4c-0.1,1.1,0,2.2-0.2,3.3c-1.2,5.4-3.3,7.2-7.8,7.9c-5.5,0.9-11.5-1.2-14.2-5.2
		c-1.1-1.7-1.2-3.3-0.1-4.9c4.2-5.5,9.9-8.6,16.8-9.2c3-0.3,5,1.8,5.4,5.2c0.1,0.9,0,1.9,0,2.9C720.1,116.4,720.2,116.4,720.2,116.4
		z"/>
	<path class="st1" d="M747.9,102.6c5.8-0.1,7.6,2.6,6.2,7.2c-2,6.4-6.8,9.3-13,10.4c-1.5,0.3-2.9,0.6-4.5,0.2
		c-3.1-0.7-4.8-2.6-5.5-5.6c-0.6-2.7,0.6-4.9,2.5-6.5C738.2,104.6,743.5,103.1,747.9,102.6z"/>
	<path class="st1" d="M745.1,83.9c0.1-0.1,0.1-0.3,0.2-0.4c7.1-1.8,13.8-5,20.6-7.5c4-1.5,7.9-3.5,12.2-4.3
		c-0.4,2.5-1.8,4.4-3.5,6.1c-4.4,4.6-9.1,9-14.7,12.4C752.2,95,747.1,92.9,745.1,83.9z"/>
	<path class="st1" d="M681.4,106.9c3.7-6.4,9.1-11.1,15.5-14.6c1.7-0.9,3.3-2.2,5.4-2.1c1,3.3,1.2,6.6,0.4,9.9
		c-2.2,8.4-12.5,12.4-20,7.9c-0.4-0.2-0.8-0.4-1.3-0.7C681.4,107.2,681.4,107.1,681.4,106.9z"/>
	<path class="st1" d="M683.8,136.1c0,3.2-2.9,6.1-6.1,6.1c-3.2,0-6.2-2.6-6.3-5.6c-0.1-3.2,2.8-5.8,6.5-5.9
		C681.5,130.7,683.8,132.8,683.8,136.1z"/>
	<path class="st22" d="M618.6,293c9.6-8.5,17-18.7,24-29.7C640.5,275.2,629.6,289,618.6,293z"/>
	<path class="st22" d="M536,330.8c-11.3,7-31.4,7.8-41.5,2.8C508.7,334.7,522.3,333.1,536,330.8z"/>
	<path class="st4" d="M537.2,330.5c0,0,0-0.1,0.1-0.1c0.1,0,0.1,0,0.2,0.1c0,0.1,0,0.1-0.1,0.1C537.3,330.5,537.2,330.5,537.2,330.5
		z"/>
	<path class="st22" d="M553,324.6c12.6-1.9,24.4-6.3,36.3-11.7C585,318.9,568.2,327.5,553,324.6z"/>
	<path class="st22" d="M290.6,296.9c13.1,5.9,26.8,10,41.2,12.4C320.3,310.7,300.4,306.8,290.6,296.9z"/>
	<path class="st22" d="M663,202c4.1,8.1-0.7,31.7-7.7,36.3c2.2-6.3,4-12.1,5.2-18.1C661.7,214.2,662.3,208.3,663,202z"/>
	<path class="st22" d="M660,144.6c5.7,8.9,5.9,25.7,2.2,33C662.9,166.1,662,155.3,660,144.6z"/>
	<path class="st11" d="M351.8,457.6c-1.8-15.2,1.6-29,11.2-41.1c2.9-3.7,6.8-6.2,11.4-7.3c5.2-1.3,9.5,0.1,13,4.3
		c2.4,2.9,4,6.3,5.1,9.9c2.6,8.5,3.3,17.3,2.5,26.1c-0.4,0-0.8,0-1.2,0c0-1.1,0-2.2-0.1-3.3c-0.5-5.4-2.1-10.3-6.3-13.9
		c-4.1-3.6-9.2-3.7-13.5-0.4c-2.6,2-4.3,4.6-5.6,7.6c-2.8,6.9-2.4,13.8,0.5,20.6C363.1,460.1,357.4,458.9,351.8,457.6z"/>
	<path class="st14" d="M351.8,457.6c5.6,1.3,11.2,2.5,17,2.4c0.3,0.4,0.6,0.7,0.8,1.1c5.5,8.7,14.8,8.7,20.4,0
		c2.3-3.6,3.3-7.5,3.7-11.7c0.4,0,0.8,0,1.2,0c-0.3,5.8-1.3,11.4-4,16.5c-4.1,7.8-10.7,11.6-19.5,11.1c-8.8-0.5-14.9-5.3-18.2-13.5
		C352.5,461.7,351.9,459.7,351.8,457.6z"/>
	<path class="st26" d="M393.8,449.5c-0.4,4.2-1.4,8.1-3.7,11.7c-5.6,8.6-14.9,8.6-20.4,0c-0.3-0.4-0.5-0.8-0.8-1.1
		c-2.9-6.8-3.3-13.6-0.5-20.6c1.2-3,3-5.6,5.6-7.6c4.3-3.3,9.4-3.2,13.5,0.4c4.2,3.7,5.8,8.6,6.3,13.9
		C393.8,447.3,393.8,448.4,393.8,449.5z M385.1,459.1c-0.1,1.6-1.4,2.2-2.6,2.8c-4,1.7-8-0.5-9.8-5.3c-1-2.7-2.8-4.8-5-6.7
		c0.4,5.8,1.8,11.2,6.8,14.9c3.5,2.6,7.6,2.4,11-0.3c4.4-3.5,6.4-8.2,6.8-14.2c-2.1,2.1-4.3,3.5-5.1,6.2
		C387,457.5,386.5,458.8,385.1,459.1c0.6-1,0.7-1.9-0.3-2.7c-0.5-0.4-1.2-0.4-1.7,0.1c-0.7,0.6-0.8,1.4-0.4,2.1
		C383.3,459.7,384.2,459.6,385.1,459.1z M379.9,441.1c0-2.4-1.5-4.1-3.6-4.1c-2.1,0-3.7,1.8-3.8,4.1c0,2.3,1.6,4.1,3.7,4.1
		C378.3,445.2,379.9,443.4,379.9,441.1z"/>
	<path class="st1" d="M385.1,459.1c1.4-0.3,1.9-1.5,2.2-2.6c0.8-2.7,3-4.2,5.1-6.2c-0.4,6-2.4,10.7-6.8,14.2
		c-3.4,2.7-7.5,2.8-11,0.3c-5-3.7-6.5-9-6.8-14.9c2.2,1.9,3.9,4,5,6.7c1.8,4.9,5.9,7,9.8,5.3C383.7,461.3,385,460.7,385.1,459.1
		C385.1,459.1,385.1,459.1,385.1,459.1z"/>
	<path class="st11" d="M379.9,441.1c0,2.3-1.7,4.1-3.7,4.1c-2.1,0-3.7-1.9-3.7-4.1c0-2.3,1.7-4.1,3.8-4.1
		C378.4,436.9,379.9,438.7,379.9,441.1z"/>
	<path class="st11" d="M385.1,459.1C385.1,459.1,385.1,459.1,385.1,459.1c-0.9,0.6-1.8,0.6-2.4-0.4c-0.4-0.8-0.3-1.5,0.4-2.1
		c0.5-0.5,1.2-0.5,1.7-0.1C385.8,457.1,385.7,458.1,385.1,459.1z"/>
</g>
</svg>
